<?xml version="1.0" encoding="UTF-8" standalone="no"?>
<!DOCTYPE svg PUBLIC "-//W3C//DTD SVG 1.1//EN"
 "http://www.w3.org/Graphics/SVG/1.1/DTD/svg11.dtd">
<!-- Generated by graphviz version 2.40.1 (20161225.0304)
 -->
<!-- Title: dependencies Pages: 1 -->
<svg width="610pt" height="211pt"
 viewBox="0.00 0.00 610.00 211.00" xmlns="http://www.w3.org/2000/svg" xmlns:xlink="http://www.w3.org/1999/xlink">
<g id="graph0" class="graph" transform="scale(1 1) rotate(0) translate(4 207)">
<title>dependencies</title>
<polygon fill="#ffffff" stroke="transparent" points="-4,4 -4,-207 606,-207 606,4 -4,4"/>
<text text-anchor="start" x="280.0091" y="-42.4" font-family="sans-serif" font-weight="bold" font-size="14.00" fill="#000000">Legend</text>
<polygon fill="#ffffb3" stroke="transparent" points="67,-10 67,-30 87,-30 87,-10 67,-10"/>
<text text-anchor="start" x="90.629" y="-15.4" font-family="sans-serif" font-size="14.00" fill="#000000"> &#160;Declarations</text>
<polygon fill="#8dd3c7" stroke="transparent" points="180,-10 180,-30 200,-30 200,-10 180,-10"/>
<text text-anchor="start" x="203.7251" y="-15.4" font-family="sans-serif" font-size="14.00" fill="#000000"> &#160;Module</text>
<polygon fill="#80b1d3" stroke="transparent" points="266,-10 266,-30 286,-30 286,-10 266,-10"/>
<text text-anchor="start" x="289.7812" y="-15.4" font-family="sans-serif" font-size="14.00" fill="#000000"> &#160;Bootstrap</text>
<polygon fill="#fdb462" stroke="transparent" points="363,-10 363,-30 383,-30 383,-10 363,-10"/>
<text text-anchor="start" x="386.6732" y="-15.4" font-family="sans-serif" font-size="14.00" fill="#000000"> &#160;Providers</text>
<polygon fill="#fb8072" stroke="transparent" points="459,-10 459,-30 479,-30 479,-10 459,-10"/>
<text text-anchor="start" x="482.7258" y="-15.4" font-family="sans-serif" font-size="14.00" fill="#000000"> &#160;Exports</text>
<g id="clust1" class="cluster">
<title>cluster_ExceptionsModule</title>
<polygon fill="none" stroke="#000000" stroke-dasharray="1,5" points="8,-70 8,-195 594,-195 594,-70 8,-70"/>
</g>
<g id="clust2" class="cluster">
<title>cluster_ExceptionsModule_declarations</title>
<polygon fill="none" stroke="#000000" points="206,-78 206,-130 586,-130 586,-78 206,-78"/>
</g>
<g id="clust5" class="cluster">
<title>cluster_ExceptionsModule_imports</title>
<polygon fill="none" stroke="#000000" points="16,-78 16,-130 198,-130 198,-78 16,-78"/>
</g>
<!-- PageBadGatewayComponent -->
<g id="node1" class="node">
<title>PageBadGatewayComponent</title>
<polygon fill="#ffffb3" stroke="#000000" points="578.3431,-122 397.6569,-122 397.6569,-86 578.3431,-86 578.3431,-122"/>
<text text-anchor="middle" x="488" y="-99.8" font-family="Times,serif" font-size="14.00" fill="#000000">PageBadGatewayComponent</text>
</g>
<!-- ExceptionsModule -->
<g id="node3" class="node">
<title>ExceptionsModule</title>
<polygon fill="#8dd3c7" stroke="#000000" points="357.7576,-187 354.7576,-191 333.7576,-191 330.7576,-187 236.2424,-187 236.2424,-151 357.7576,-151 357.7576,-187"/>
<text text-anchor="middle" x="297" y="-164.8" font-family="Times,serif" font-size="14.00" fill="#000000">ExceptionsModule</text>
</g>
<!-- PageBadGatewayComponent&#45;&gt;ExceptionsModule -->
<g id="edge1" class="edge">
<title>PageBadGatewayComponent&#45;&gt;ExceptionsModule</title>
<path fill="none" stroke="#000000" d="M488,-122.1061C488,-141.3391 488,-169 488,-169 488,-169 367.9587,-169 367.9587,-169"/>
<polygon fill="#000000" stroke="#000000" points="367.9588,-165.5001 357.9587,-169 367.9587,-172.5001 367.9588,-165.5001"/>
</g>
<!-- PageNotFoundComponent -->
<g id="node2" class="node">
<title>PageNotFoundComponent</title>
<polygon fill="#ffffb3" stroke="#000000" points="379.8243,-122 214.1757,-122 214.1757,-86 379.8243,-86 379.8243,-122"/>
<text text-anchor="middle" x="297" y="-99.8" font-family="Times,serif" font-size="14.00" fill="#000000">PageNotFoundComponent</text>
</g>
<!-- PageNotFoundComponent&#45;&gt;ExceptionsModule -->
<g id="edge2" class="edge">
<title>PageNotFoundComponent&#45;&gt;ExceptionsModule</title>
<path fill="none" stroke="#000000" d="M297,-122.1061C297,-122.1061 297,-140.991 297,-140.991"/>
<polygon fill="#000000" stroke="#000000" points="293.5001,-140.9909 297,-150.991 300.5001,-140.991 293.5001,-140.9909"/>
</g>
<!-- ExceptionsRoutingModule -->
<g id="node4" class="node">
<title>ExceptionsRoutingModule</title>
<polygon fill="#8dd3c7" stroke="#000000" points="190.3752,-122 187.3752,-126 166.3752,-126 163.3752,-122 23.6248,-122 23.6248,-86 190.3752,-86 190.3752,-122"/>
<text text-anchor="middle" x="107" y="-99.8" font-family="Times,serif" font-size="14.00" fill="#000000">ExceptionsRoutingModule</text>
</g>
<!-- ExceptionsRoutingModule&#45;&gt;ExceptionsModule -->
<g id="edge3" class="edge">
<title>ExceptionsRoutingModule&#45;&gt;ExceptionsModule</title>
<path fill="none" stroke="#000000" d="M107,-122.1061C107,-141.3391 107,-169 107,-169 107,-169 226.0988,-169 226.0988,-169"/>
<polygon fill="#000000" stroke="#000000" points="226.0989,-172.5001 236.0988,-169 226.0988,-165.5001 226.0989,-172.5001"/>
</g>
</g>
</svg>
