<?xml version="1.0" encoding="UTF-8" standalone="no"?>
<!DOCTYPE svg PUBLIC "-//W3C//DTD SVG 1.1//EN"
 "http://www.w3.org/Graphics/SVG/1.1/DTD/svg11.dtd">
<!-- Generated by graphviz version 2.40.1 (20161225.0304)
 -->
<!-- Title: dependencies Pages: 1 -->
<svg width="2437pt" height="284pt"
 viewBox="0.00 0.00 2437.00 284.00" xmlns="http://www.w3.org/2000/svg" xmlns:xlink="http://www.w3.org/1999/xlink">
<g id="graph0" class="graph" transform="scale(1 1) rotate(0) translate(4 280)">
<title>dependencies</title>
<polygon fill="#ffffff" stroke="transparent" points="-4,4 -4,-280 2433,-280 2433,4 -4,4"/>
<text text-anchor="start" x="1193.5091" y="-42.4" font-family="sans-serif" font-weight="bold" font-size="14.00" fill="#000000">Legend</text>
<polygon fill="#ffffb3" stroke="transparent" points="980.5,-10 980.5,-30 1000.5,-30 1000.5,-10 980.5,-10"/>
<text text-anchor="start" x="1004.129" y="-15.4" font-family="sans-serif" font-size="14.00" fill="#000000"> &#160;Declarations</text>
<polygon fill="#8dd3c7" stroke="transparent" points="1093.5,-10 1093.5,-30 1113.5,-30 1113.5,-10 1093.5,-10"/>
<text text-anchor="start" x="1117.2251" y="-15.4" font-family="sans-serif" font-size="14.00" fill="#000000"> &#160;Module</text>
<polygon fill="#80b1d3" stroke="transparent" points="1179.5,-10 1179.5,-30 1199.5,-30 1199.5,-10 1179.5,-10"/>
<text text-anchor="start" x="1203.2812" y="-15.4" font-family="sans-serif" font-size="14.00" fill="#000000"> &#160;Bootstrap</text>
<polygon fill="#fdb462" stroke="transparent" points="1276.5,-10 1276.5,-30 1296.5,-30 1296.5,-10 1276.5,-10"/>
<text text-anchor="start" x="1300.1732" y="-15.4" font-family="sans-serif" font-size="14.00" fill="#000000"> &#160;Providers</text>
<polygon fill="#fb8072" stroke="transparent" points="1372.5,-10 1372.5,-30 1392.5,-30 1392.5,-10 1372.5,-10"/>
<text text-anchor="start" x="1396.2258" y="-15.4" font-family="sans-serif" font-size="14.00" fill="#000000"> &#160;Exports</text>
<g id="clust1" class="cluster">
<title>cluster_LayoutContainersModule</title>
<polygon fill="none" stroke="#000000" stroke-dasharray="1,5" points="8,-70 8,-268 2421,-268 2421,-70 8,-70"/>
</g>
<g id="clust2" class="cluster">
<title>cluster_LayoutContainersModule_declarations</title>
<polygon fill="none" stroke="#000000" points="184,-78 184,-130 2413,-130 2413,-78 184,-78"/>
</g>
<g id="clust17" class="cluster">
<title>cluster_LayoutContainersModule_exports</title>
<polygon fill="none" stroke="#000000" points="79,-208 79,-260 2350,-260 2350,-208 79,-208"/>
</g>
<g id="clust19" class="cluster">
<title>cluster_LayoutContainersModule_providers</title>
<polygon fill="none" stroke="#000000" points="16,-78 16,-130 176,-130 176,-78 16,-78"/>
</g>
<!-- BreadCrumbComponent -->
<g id="node1" class="node">
<title>BreadCrumbComponent</title>
<polygon fill="#ffffb3" stroke="#000000" points="2404.647,-122 2251.353,-122 2251.353,-86 2404.647,-86 2404.647,-122"/>
<text text-anchor="middle" x="2328" y="-99.8" font-family="Times,serif" font-size="14.00" fill="#000000">BreadCrumbComponent</text>
</g>
<!-- LayoutContainersModule -->
<g id="node14" class="node">
<title>LayoutContainersModule</title>
<polygon fill="#8dd3c7" stroke="#000000" points="1281.8599,-187 1278.8599,-191 1257.8599,-191 1254.8599,-187 1122.1401,-187 1122.1401,-151 1281.8599,-151 1281.8599,-187"/>
<text text-anchor="middle" x="1202" y="-164.8" font-family="Times,serif" font-size="14.00" fill="#000000">LayoutContainersModule</text>
</g>
<!-- BreadCrumbComponent&#45;&gt;LayoutContainersModule -->
<g id="edge1" class="edge">
<title>BreadCrumbComponent&#45;&gt;LayoutContainersModule</title>
<path fill="none" stroke="#000000" d="M2296.375,-122.1686C2296.375,-141.0898 2296.375,-168 2296.375,-168 2296.375,-168 1292.0286,-168 1292.0286,-168"/>
<polygon fill="#000000" stroke="#000000" points="1292.0287,-164.5001 1282.0286,-168 1292.0286,-171.5001 1292.0287,-164.5001"/>
</g>
<!-- DossierDetailsComponent -->
<g id="node2" class="node">
<title>DossierDetailsComponent</title>
<polygon fill="#ffffb3" stroke="#000000" points="2232.7464,-122 2069.2536,-122 2069.2536,-86 2232.7464,-86 2232.7464,-122"/>
<text text-anchor="middle" x="2151" y="-99.8" font-family="Times,serif" font-size="14.00" fill="#000000">DossierDetailsComponent</text>
</g>
<!-- DossierDetailsComponent&#45;&gt;LayoutContainersModule -->
<g id="edge2" class="edge">
<title>DossierDetailsComponent&#45;&gt;LayoutContainersModule</title>
<path fill="none" stroke="#000000" d="M2117.875,-122.302C2117.875,-140.2699 2117.875,-165 2117.875,-165 2117.875,-165 1292.075,-165 1292.075,-165"/>
<polygon fill="#000000" stroke="#000000" points="1292.075,-161.5001 1282.075,-165 1292.075,-168.5001 1292.075,-161.5001"/>
</g>
<!-- HeaderComponent -->
<g id="node3" class="node">
<title>HeaderComponent</title>
<polygon fill="#ffffb3" stroke="#000000" points="2050.7437,-122 1929.2563,-122 1929.2563,-86 2050.7437,-86 2050.7437,-122"/>
<text text-anchor="middle" x="1990" y="-99.8" font-family="Times,serif" font-size="14.00" fill="#000000">HeaderComponent</text>
</g>
<!-- HeaderComponent&#45;&gt;LayoutContainersModule -->
<g id="edge3" class="edge">
<title>HeaderComponent&#45;&gt;LayoutContainersModule</title>
<path fill="none" stroke="#000000" d="M1955.375,-122.0225C1955.375,-139.3734 1955.375,-163 1955.375,-163 1955.375,-163 1291.9111,-163 1291.9111,-163"/>
<polygon fill="#000000" stroke="#000000" points="1291.9111,-159.5001 1281.9111,-163 1291.911,-166.5001 1291.9111,-159.5001"/>
</g>
<!-- HorizontalNavigationComponent -->
<g id="node4" class="node">
<title>HorizontalNavigationComponent</title>
<polygon fill="#ffffb3" stroke="#000000" points="1910.9086,-122 1707.0914,-122 1707.0914,-86 1910.9086,-86 1910.9086,-122"/>
<text text-anchor="middle" x="1809" y="-99.8" font-family="Times,serif" font-size="14.00" fill="#000000">HorizontalNavigationComponent</text>
</g>
<!-- HorizontalNavigationComponent&#45;&gt;LayoutContainersModule -->
<g id="edge4" class="edge">
<title>HorizontalNavigationComponent&#45;&gt;LayoutContainersModule</title>
<path fill="none" stroke="#000000" d="M1772.875,-122.027C1772.875,-138.3976 1772.875,-160 1772.875,-160 1772.875,-160 1291.9788,-160 1291.9788,-160"/>
<polygon fill="#000000" stroke="#000000" points="1291.9789,-156.5001 1281.9788,-160 1291.9788,-163.5001 1291.9789,-156.5001"/>
</g>
<!-- LanguageSelectorComponent -->
<g id="node5" class="node">
<title>LanguageSelectorComponent</title>
<polygon fill="#ffffb3" stroke="#000000" points="1689.3974,-122 1506.6026,-122 1506.6026,-86 1689.3974,-86 1689.3974,-122"/>
<text text-anchor="middle" x="1598" y="-99.8" font-family="Times,serif" font-size="14.00" fill="#000000">LanguageSelectorComponent</text>
</g>
<!-- LanguageSelectorComponent&#45;&gt;LayoutContainersModule -->
<g id="edge5" class="edge">
<title>LanguageSelectorComponent&#45;&gt;LayoutContainersModule</title>
<path fill="none" stroke="#000000" d="M1560.375,-122.2396C1560.375,-137.5706 1560.375,-157 1560.375,-157 1560.375,-157 1291.9803,-157 1291.9803,-157"/>
<polygon fill="#000000" stroke="#000000" points="1291.9803,-153.5001 1281.9803,-157 1291.9803,-160.5001 1291.9803,-153.5001"/>
</g>
<!-- LayoutContainer -->
<g id="node6" class="node">
<title>LayoutContainer</title>
<polygon fill="#ffffb3" stroke="#000000" points="1488.3655,-122 1377.6345,-122 1377.6345,-86 1488.3655,-86 1488.3655,-122"/>
<text text-anchor="middle" x="1433" y="-99.8" font-family="Times,serif" font-size="14.00" fill="#000000">LayoutContainer</text>
</g>
<!-- LayoutContainer&#45;&gt;LayoutContainersModule -->
<g id="edge6" class="edge">
<title>LayoutContainer&#45;&gt;LayoutContainersModule</title>
<path fill="none" stroke="#000000" d="M1393.875,-122.0511C1393.875,-136.373 1393.875,-154 1393.875,-154 1393.875,-154 1291.9829,-154 1291.9829,-154"/>
<polygon fill="#000000" stroke="#000000" points="1291.9829,-150.5001 1281.9829,-154 1291.9828,-157.5001 1291.9829,-150.5001"/>
</g>
<!-- LeftSidebarComponent -->
<g id="node7" class="node">
<title>LeftSidebarComponent</title>
<polygon fill="#ffffb3" stroke="#000000" points="1359.9144,-122 1212.0856,-122 1212.0856,-86 1359.9144,-86 1359.9144,-122"/>
<text text-anchor="middle" x="1286" y="-99.8" font-family="Times,serif" font-size="14.00" fill="#000000">LeftSidebarComponent</text>
</g>
<!-- LeftSidebarComponent&#45;&gt;LayoutContainersModule -->
<g id="edge7" class="edge">
<title>LeftSidebarComponent&#45;&gt;LayoutContainersModule</title>
<path fill="none" stroke="#000000" d="M1247.1115,-122.1061C1247.1115,-122.1061 1247.1115,-140.991 1247.1115,-140.991"/>
<polygon fill="#000000" stroke="#000000" points="1243.6116,-140.9909 1247.1115,-150.991 1250.6116,-140.991 1243.6116,-140.9909"/>
</g>
<!-- NotificationBoxComponent -->
<g id="node8" class="node">
<title>NotificationBoxComponent</title>
<polygon fill="#ffffb3" stroke="#000000" points="1194.3187,-122 1021.6813,-122 1021.6813,-86 1194.3187,-86 1194.3187,-122"/>
<text text-anchor="middle" x="1108" y="-99.8" font-family="Times,serif" font-size="14.00" fill="#000000">NotificationBoxComponent</text>
</g>
<!-- NotificationBoxComponent&#45;&gt;LayoutContainersModule -->
<g id="edge8" class="edge">
<title>NotificationBoxComponent&#45;&gt;LayoutContainersModule</title>
<path fill="none" stroke="#000000" d="M1158.1147,-122.1061C1158.1147,-122.1061 1158.1147,-140.991 1158.1147,-140.991"/>
<polygon fill="#000000" stroke="#000000" points="1154.6147,-140.9909 1158.1147,-150.991 1161.6147,-140.991 1154.6147,-140.9909"/>
</g>
<!-- PageContentComponent -->
<g id="node9" class="node">
<title>PageContentComponent</title>
<polygon fill="#ffffb3" stroke="#000000" points="1003.3766,-122 850.6234,-122 850.6234,-86 1003.3766,-86 1003.3766,-122"/>
<text text-anchor="middle" x="927" y="-99.8" font-family="Times,serif" font-size="14.00" fill="#000000">PageContentComponent</text>
</g>
<!-- PageContentComponent&#45;&gt;LayoutContainersModule -->
<g id="edge9" class="edge">
<title>PageContentComponent&#45;&gt;LayoutContainersModule</title>
<path fill="none" stroke="#000000" d="M968.2646,-122.0511C968.2646,-136.373 968.2646,-154 968.2646,-154 968.2646,-154 1111.8885,-154 1111.8885,-154"/>
<polygon fill="#000000" stroke="#000000" points="1111.8886,-157.5001 1121.8885,-154 1111.8885,-150.5001 1111.8886,-157.5001"/>
</g>
<!-- ProfileBarComponent -->
<g id="node10" class="node">
<title>ProfileBarComponent</title>
<polygon fill="#ffffb3" stroke="#000000" points="832.6443,-122 693.3557,-122 693.3557,-86 832.6443,-86 832.6443,-122"/>
<text text-anchor="middle" x="763" y="-99.8" font-family="Times,serif" font-size="14.00" fill="#000000">ProfileBarComponent</text>
</g>
<!-- ProfileBarComponent&#45;&gt;LayoutContainersModule -->
<g id="edge10" class="edge">
<title>ProfileBarComponent&#45;&gt;LayoutContainersModule</title>
<path fill="none" stroke="#000000" d="M795.8168,-122.2396C795.8168,-137.5706 795.8168,-157 795.8168,-157 795.8168,-157 1111.7513,-157 1111.7513,-157"/>
<polygon fill="#000000" stroke="#000000" points="1111.7513,-160.5001 1121.7513,-157 1111.7512,-153.5001 1111.7513,-160.5001"/>
</g>
<!-- SearchBoxComponent -->
<g id="node11" class="node">
<title>SearchBoxComponent</title>
<polygon fill="#ffffb3" stroke="#000000" points="675.2562,-122 532.7438,-122 532.7438,-86 675.2562,-86 675.2562,-122"/>
<text text-anchor="middle" x="604" y="-99.8" font-family="Times,serif" font-size="14.00" fill="#000000">SearchBoxComponent</text>
</g>
<!-- SearchBoxComponent&#45;&gt;LayoutContainersModule -->
<g id="edge11" class="edge">
<title>SearchBoxComponent&#45;&gt;LayoutContainersModule</title>
<path fill="none" stroke="#000000" d="M636.4031,-122.027C636.4031,-138.3976 636.4031,-160 636.4031,-160 636.4031,-160 1111.8641,-160 1111.8641,-160"/>
<polygon fill="#000000" stroke="#000000" points="1111.8641,-163.5001 1121.8641,-160 1111.8641,-156.5001 1111.8641,-163.5001"/>
</g>
<!-- SelectedActionsComponent -->
<g id="node12" class="node">
<title>SelectedActionsComponent</title>
<polygon fill="#ffffb3" stroke="#000000" points="514.3019,-122 341.6981,-122 341.6981,-86 514.3019,-86 514.3019,-122"/>
<text text-anchor="middle" x="428" y="-99.8" font-family="Times,serif" font-size="14.00" fill="#000000">SelectedActionsComponent</text>
</g>
<!-- SelectedActionsComponent&#45;&gt;LayoutContainersModule -->
<g id="edge12" class="edge">
<title>SelectedActionsComponent&#45;&gt;LayoutContainersModule</title>
<path fill="none" stroke="#000000" d="M473.5114,-122.0225C473.5114,-139.3734 473.5114,-163 473.5114,-163 473.5114,-163 1111.9551,-163 1111.9551,-163"/>
<polygon fill="#000000" stroke="#000000" points="1111.9551,-166.5001 1121.9551,-163 1111.9551,-159.5001 1111.9551,-166.5001"/>
</g>
<!-- ToolbarsComponent -->
<g id="node13" class="node">
<title>ToolbarsComponent</title>
<polygon fill="#ffffb3" stroke="#000000" points="323.5954,-122 192.4046,-122 192.4046,-86 323.5954,-86 323.5954,-122"/>
<text text-anchor="middle" x="258" y="-99.8" font-family="Times,serif" font-size="14.00" fill="#000000">ToolbarsComponent</text>
</g>
<!-- ToolbarsComponent&#45;&gt;LayoutContainersModule -->
<g id="edge13" class="edge">
<title>ToolbarsComponent&#45;&gt;LayoutContainersModule</title>
<path fill="none" stroke="#000000" d="M281.3235,-122.302C281.3235,-140.2699 281.3235,-165 281.3235,-165 281.3235,-165 1111.9066,-165 1111.9066,-165"/>
<polygon fill="#000000" stroke="#000000" points="1111.9066,-168.5001 1121.9066,-165 1111.9065,-161.5001 1111.9066,-168.5001"/>
</g>
<!-- BreadCrumbComponent  -->
<g id="node15" class="node">
<title>BreadCrumbComponent </title>
<polygon fill="#fb8072" stroke="#000000" points="2341.6467,-252 2184.3533,-252 2184.3533,-216 2341.6467,-216 2341.6467,-252"/>
<text text-anchor="middle" x="2263" y="-229.8" font-family="Times,serif" font-size="14.00" fill="#000000">BreadCrumbComponent </text>
</g>
<!-- LayoutContainersModule&#45;&gt;BreadCrumbComponent  -->
<g id="edge14" class="edge">
<title>LayoutContainersModule&#45;&gt;BreadCrumbComponent </title>
<path fill="none" stroke="#000000" stroke-dasharray="5,2" d="M1282.2537,-171C1520.7386,-171 2208.6499,-171 2208.6499,-171 2208.6499,-171 2208.6499,-205.7778 2208.6499,-205.7778"/>
<polygon fill="#000000" stroke="#000000" points="2205.15,-205.7778 2208.6499,-215.7778 2212.15,-205.7778 2205.15,-205.7778"/>
</g>
<!-- DossierDetailsComponent  -->
<g id="node16" class="node">
<title>DossierDetailsComponent </title>
<polygon fill="#fb8072" stroke="#000000" points="2166.7464,-252 1999.2536,-252 1999.2536,-216 2166.7464,-216 2166.7464,-252"/>
<text text-anchor="middle" x="2083" y="-229.8" font-family="Times,serif" font-size="14.00" fill="#000000">DossierDetailsComponent </text>
</g>
<!-- LayoutContainersModule&#45;&gt;DossierDetailsComponent  -->
<g id="edge15" class="edge">
<title>LayoutContainersModule&#45;&gt;DossierDetailsComponent </title>
<path fill="none" stroke="#000000" stroke-dasharray="5,2" d="M1282.0476,-174C1488.8942,-174 2025.1243,-174 2025.1243,-174 2025.1243,-174 2025.1243,-205.998 2025.1243,-205.998"/>
<polygon fill="#000000" stroke="#000000" points="2021.6244,-205.998 2025.1243,-215.998 2028.6244,-205.9981 2021.6244,-205.998"/>
</g>
<!-- HeaderComponent  -->
<g id="node17" class="node">
<title>HeaderComponent </title>
<polygon fill="#fb8072" stroke="#000000" points="1981.7436,-252 1856.2564,-252 1856.2564,-216 1981.7436,-216 1981.7436,-252"/>
<text text-anchor="middle" x="1919" y="-229.8" font-family="Times,serif" font-size="14.00" fill="#000000">HeaderComponent </text>
</g>
<!-- LayoutContainersModule&#45;&gt;HeaderComponent  -->
<g id="edge16" class="edge">
<title>LayoutContainersModule&#45;&gt;HeaderComponent </title>
<path fill="none" stroke="#000000" stroke-dasharray="5,2" d="M1282.1856,-176C1462.3455,-176 1883.5412,-176 1883.5412,-176 1883.5412,-176 1883.5412,-205.9664 1883.5412,-205.9664"/>
<polygon fill="#000000" stroke="#000000" points="1880.0413,-205.9663 1883.5412,-215.9664 1887.0413,-205.9664 1880.0413,-205.9663"/>
</g>
<!-- HorizontalNavigationComponent  -->
<g id="node18" class="node">
<title>HorizontalNavigationComponent </title>
<polygon fill="#fb8072" stroke="#000000" points="1838.4082,-252 1631.5918,-252 1631.5918,-216 1838.4082,-216 1838.4082,-252"/>
<text text-anchor="middle" x="1735" y="-229.8" font-family="Times,serif" font-size="14.00" fill="#000000">HorizontalNavigationComponent </text>
</g>
<!-- LayoutContainersModule&#45;&gt;HorizontalNavigationComponent  -->
<g id="edge17" class="edge">
<title>LayoutContainersModule&#45;&gt;HorizontalNavigationComponent </title>
<path fill="none" stroke="#000000" stroke-dasharray="5,2" d="M1282.1045,-179C1413.4976,-179 1660.3722,-179 1660.3722,-179 1660.3722,-179 1660.3722,-205.9909 1660.3722,-205.9909"/>
<polygon fill="#000000" stroke="#000000" points="1656.8723,-205.9909 1660.3722,-215.9909 1663.8723,-205.991 1656.8723,-205.9909"/>
</g>
<!-- LanguageSelectorComponent  -->
<g id="node19" class="node">
<title>LanguageSelectorComponent </title>
<polygon fill="#fb8072" stroke="#000000" points="1613.897,-252 1428.103,-252 1428.103,-216 1613.897,-216 1613.897,-252"/>
<text text-anchor="middle" x="1521" y="-229.8" font-family="Times,serif" font-size="14.00" fill="#000000">LanguageSelectorComponent </text>
</g>
<!-- LayoutContainersModule&#45;&gt;LanguageSelectorComponent  -->
<g id="edge18" class="edge">
<title>LayoutContainersModule&#45;&gt;LanguageSelectorComponent </title>
<path fill="none" stroke="#000000" stroke-dasharray="5,2" d="M1282.0226,-182C1357.2069,-182 1458.2421,-182 1458.2421,-182 1458.2421,-182 1458.2421,-205.8129 1458.2421,-205.8129"/>
<polygon fill="#000000" stroke="#000000" points="1454.7422,-205.8129 1458.2421,-215.8129 1461.7422,-205.813 1454.7422,-205.8129"/>
</g>
<!-- LayoutContainer  -->
<g id="node20" class="node">
<title>LayoutContainer </title>
<polygon fill="#fb8072" stroke="#000000" points="1410.366,-252 1295.634,-252 1295.634,-216 1410.366,-216 1410.366,-252"/>
<text text-anchor="middle" x="1353" y="-229.8" font-family="Times,serif" font-size="14.00" fill="#000000">LayoutContainer </text>
</g>
<!-- LayoutContainersModule&#45;&gt;LayoutContainer  -->
<g id="edge19" class="edge">
<title>LayoutContainersModule&#45;&gt;LayoutContainer </title>
<path fill="none" stroke="#000000" stroke-dasharray="5,2" d="M1282.0033,-185C1306.8064,-185 1327.7621,-185 1327.7621,-185 1327.7621,-185 1327.7621,-205.7542 1327.7621,-205.7542"/>
<polygon fill="#000000" stroke="#000000" points="1324.2622,-205.7542 1327.7621,-215.7542 1331.2622,-205.7542 1324.2622,-205.7542"/>
</g>
<!-- LeftSidebarComponent  -->
<g id="node21" class="node">
<title>LeftSidebarComponent </title>
<polygon fill="#fb8072" stroke="#000000" points="1277.4138,-252 1126.5862,-252 1126.5862,-216 1277.4138,-216 1277.4138,-252"/>
<text text-anchor="middle" x="1202" y="-229.8" font-family="Times,serif" font-size="14.00" fill="#000000">LeftSidebarComponent </text>
</g>
<!-- LayoutContainersModule&#45;&gt;LeftSidebarComponent  -->
<g id="edge20" class="edge">
<title>LayoutContainersModule&#45;&gt;LeftSidebarComponent </title>
<path fill="none" stroke="#000000" stroke-dasharray="5,2" d="M1202,-187.1061C1202,-187.1061 1202,-205.991 1202,-205.991"/>
<polygon fill="#000000" stroke="#000000" points="1198.5001,-205.9909 1202,-215.991 1205.5001,-205.991 1198.5001,-205.9909"/>
</g>
<!-- NotificationBoxComponent  -->
<g id="node22" class="node">
<title>NotificationBoxComponent </title>
<polygon fill="#fb8072" stroke="#000000" points="1108.8185,-252 933.1815,-252 933.1815,-216 1108.8185,-216 1108.8185,-252"/>
<text text-anchor="middle" x="1021" y="-229.8" font-family="Times,serif" font-size="14.00" fill="#000000">NotificationBoxComponent </text>
</g>
<!-- LayoutContainersModule&#45;&gt;NotificationBoxComponent  -->
<g id="edge21" class="edge">
<title>LayoutContainersModule&#45;&gt;NotificationBoxComponent </title>
<path fill="none" stroke="#000000" stroke-dasharray="5,2" d="M1122.1294,-185C1092.231,-185 1065.375,-185 1065.375,-185 1065.375,-185 1065.375,-205.7542 1065.375,-205.7542"/>
<polygon fill="#000000" stroke="#000000" points="1061.8751,-205.7542 1065.375,-215.7542 1068.8751,-205.7542 1061.8751,-205.7542"/>
</g>
<!-- PageContentComponent  -->
<g id="node23" class="node">
<title>PageContentComponent </title>
<polygon fill="#fb8072" stroke="#000000" points="915.3771,-252 758.6229,-252 758.6229,-216 915.3771,-216 915.3771,-252"/>
<text text-anchor="middle" x="837" y="-229.8" font-family="Times,serif" font-size="14.00" fill="#000000">PageContentComponent </text>
</g>
<!-- LayoutContainersModule&#45;&gt;PageContentComponent  -->
<g id="edge22" class="edge">
<title>LayoutContainersModule&#45;&gt;PageContentComponent </title>
<path fill="none" stroke="#000000" stroke-dasharray="5,2" d="M1121.8832,-182C1027.3522,-182 882.875,-182 882.875,-182 882.875,-182 882.875,-205.8129 882.875,-205.8129"/>
<polygon fill="#000000" stroke="#000000" points="879.3751,-205.8129 882.875,-215.8129 886.3751,-205.813 879.3751,-205.8129"/>
</g>
<!-- ProfileBarComponent  -->
<g id="node24" class="node">
<title>ProfileBarComponent </title>
<polygon fill="#fb8072" stroke="#000000" points="740.6439,-252 597.3561,-252 597.3561,-216 740.6439,-216 740.6439,-252"/>
<text text-anchor="middle" x="669" y="-229.8" font-family="Times,serif" font-size="14.00" fill="#000000">ProfileBarComponent </text>
</g>
<!-- LayoutContainersModule&#45;&gt;ProfileBarComponent  -->
<g id="edge23" class="edge">
<title>LayoutContainersModule&#45;&gt;ProfileBarComponent </title>
<path fill="none" stroke="#000000" stroke-dasharray="5,2" d="M1121.8915,-179C984.1024,-179 716.875,-179 716.875,-179 716.875,-179 716.875,-205.9909 716.875,-205.9909"/>
<polygon fill="#000000" stroke="#000000" points="713.3751,-205.9909 716.875,-215.9909 720.3751,-205.991 713.3751,-205.9909"/>
</g>
<!-- SearchBoxComponent  -->
<g id="node25" class="node">
<title>SearchBoxComponent </title>
<polygon fill="#fb8072" stroke="#000000" points="579.2562,-252 432.7438,-252 432.7438,-216 579.2562,-216 579.2562,-252"/>
<text text-anchor="middle" x="506" y="-229.8" font-family="Times,serif" font-size="14.00" fill="#000000">SearchBoxComponent </text>
</g>
<!-- LayoutContainersModule&#45;&gt;SearchBoxComponent  -->
<g id="edge24" class="edge">
<title>LayoutContainersModule&#45;&gt;SearchBoxComponent </title>
<path fill="none" stroke="#000000" stroke-dasharray="5,2" d="M1122.1244,-176C949.2531,-176 555.875,-176 555.875,-176 555.875,-176 555.875,-205.9664 555.875,-205.9664"/>
<polygon fill="#000000" stroke="#000000" points="552.3751,-205.9663 555.875,-215.9664 559.3751,-205.9664 552.3751,-205.9663"/>
</g>
<!-- SelectedActionsComponent  -->
<g id="node26" class="node">
<title>SelectedActionsComponent </title>
<polygon fill="#fb8072" stroke="#000000" points="414.8017,-252 239.1983,-252 239.1983,-216 414.8017,-216 414.8017,-252"/>
<text text-anchor="middle" x="327" y="-229.8" font-family="Times,serif" font-size="14.00" fill="#000000">SelectedActionsComponent </text>
</g>
<!-- LayoutContainersModule&#45;&gt;SelectedActionsComponent  -->
<g id="edge25" class="edge">
<title>LayoutContainersModule&#45;&gt;SelectedActionsComponent </title>
<path fill="none" stroke="#000000" stroke-dasharray="5,2" d="M1121.9037,-174C914.9313,-174 378.375,-174 378.375,-174 378.375,-174 378.375,-205.998 378.375,-205.998"/>
<polygon fill="#000000" stroke="#000000" points="374.8751,-205.998 378.375,-215.998 381.8751,-205.9981 374.8751,-205.998"/>
</g>
<!-- ToolbarsComponent  -->
<g id="node27" class="node">
<title>ToolbarsComponent </title>
<polygon fill="#fb8072" stroke="#000000" points="221.096,-252 86.904,-252 86.904,-216 221.096,-216 221.096,-252"/>
<text text-anchor="middle" x="154" y="-229.8" font-family="Times,serif" font-size="14.00" fill="#000000">ToolbarsComponent </text>
</g>
<!-- LayoutContainersModule&#45;&gt;ToolbarsComponent  -->
<g id="edge26" class="edge">
<title>LayoutContainersModule&#45;&gt;ToolbarsComponent </title>
<path fill="none" stroke="#000000" stroke-dasharray="5,2" d="M1121.8278,-171C885.3048,-171 206.875,-171 206.875,-171 206.875,-171 206.875,-205.7778 206.875,-205.7778"/>
<polygon fill="#000000" stroke="#000000" points="203.3751,-205.7778 206.875,-215.7778 210.3751,-205.7778 203.3751,-205.7778"/>
</g>
<!-- LayoutSandbox -->
<g id="node28" class="node">
<title>LayoutSandbox</title>
<ellipse fill="#fdb462" stroke="#000000" cx="96" cy="-104" rx="72.3787" ry="18"/>
<text text-anchor="middle" x="96" y="-99.8" font-family="Times,serif" font-size="14.00" fill="#000000">LayoutSandbox</text>
</g>
<!-- LayoutSandbox&#45;&gt;LayoutContainersModule -->
<g id="edge27" class="edge">
<title>LayoutSandbox&#45;&gt;LayoutContainersModule</title>
<path fill="none" stroke="#000000" d="M127.4457,-120.4816C127.4457,-139.4443 127.4457,-168 127.4457,-168 127.4457,-168 1112.1117,-168 1112.1117,-168"/>
<polygon fill="#000000" stroke="#000000" points="1112.1117,-171.5001 1122.1117,-168 1112.1116,-164.5001 1112.1117,-171.5001"/>
</g>
</g>
</svg>
