<?xml version="1.0" encoding="UTF-8" standalone="no"?>
<!DOCTYPE svg PUBLIC "-//W3C//DTD SVG 1.1//EN"
 "http://www.w3.org/Graphics/SVG/1.1/DTD/svg11.dtd">
<!-- Generated by graphviz version 2.40.1 (20161225.0304)
 -->
<!-- Title: dependencies Pages: 1 -->
<svg width="2118pt" height="211pt"
 viewBox="0.00 0.00 2118.00 211.00" xmlns="http://www.w3.org/2000/svg" xmlns:xlink="http://www.w3.org/1999/xlink">
<g id="graph0" class="graph" transform="scale(1 1) rotate(0) translate(4 207)">
<title>dependencies</title>
<polygon fill="#ffffff" stroke="transparent" points="-4,4 -4,-207 2114,-207 2114,4 -4,4"/>
<text text-anchor="start" x="1034.0091" y="-42.4" font-family="sans-serif" font-weight="bold" font-size="14.00" fill="#000000">Legend</text>
<polygon fill="#ffffb3" stroke="transparent" points="821,-10 821,-30 841,-30 841,-10 821,-10"/>
<text text-anchor="start" x="844.629" y="-15.4" font-family="sans-serif" font-size="14.00" fill="#000000"> &#160;Declarations</text>
<polygon fill="#8dd3c7" stroke="transparent" points="934,-10 934,-30 954,-30 954,-10 934,-10"/>
<text text-anchor="start" x="957.7251" y="-15.4" font-family="sans-serif" font-size="14.00" fill="#000000"> &#160;Module</text>
<polygon fill="#80b1d3" stroke="transparent" points="1020,-10 1020,-30 1040,-30 1040,-10 1020,-10"/>
<text text-anchor="start" x="1043.7812" y="-15.4" font-family="sans-serif" font-size="14.00" fill="#000000"> &#160;Bootstrap</text>
<polygon fill="#fdb462" stroke="transparent" points="1117,-10 1117,-30 1137,-30 1137,-10 1117,-10"/>
<text text-anchor="start" x="1140.6732" y="-15.4" font-family="sans-serif" font-size="14.00" fill="#000000"> &#160;Providers</text>
<polygon fill="#fb8072" stroke="transparent" points="1213,-10 1213,-30 1233,-30 1233,-10 1213,-10"/>
<text text-anchor="start" x="1236.7258" y="-15.4" font-family="sans-serif" font-size="14.00" fill="#000000"> &#160;Exports</text>
<g id="clust1" class="cluster">
<title>cluster_PersonsModule</title>
<polygon fill="none" stroke="#000000" stroke-dasharray="1,5" points="8,-70 8,-195 2102,-195 2102,-70 8,-70"/>
</g>
<g id="clust2" class="cluster">
<title>cluster_PersonsModule_declarations</title>
<polygon fill="none" stroke="#000000" points="1627,-78 1627,-130 2094,-130 2094,-78 1627,-78"/>
</g>
<g id="clust6" class="cluster">
<title>cluster_PersonsModule_imports</title>
<polygon fill="none" stroke="#000000" points="693,-78 693,-130 1619,-130 1619,-78 693,-78"/>
</g>
<g id="clust9" class="cluster">
<title>cluster_PersonsModule_providers</title>
<polygon fill="none" stroke="#000000" points="16,-78 16,-130 685,-130 685,-78 16,-78"/>
</g>
<!-- PersonFormComponent -->
<g id="node1" class="node">
<title>PersonFormComponent</title>
<polygon fill="#ffffb3" stroke="#000000" points="2085.7688,-122 1936.2312,-122 1936.2312,-86 2085.7688,-86 2085.7688,-122"/>
<text text-anchor="middle" x="2011" y="-99.8" font-family="Times,serif" font-size="14.00" fill="#000000">PersonFormComponent</text>
</g>
<!-- PersonsModule -->
<g id="node4" class="node">
<title>PersonsModule</title>
<polygon fill="#8dd3c7" stroke="#000000" points="1096.5968,-187 1093.5968,-191 1072.5968,-191 1069.5968,-187 993.4032,-187 993.4032,-151 1096.5968,-151 1096.5968,-187"/>
<text text-anchor="middle" x="1045" y="-164.8" font-family="Times,serif" font-size="14.00" fill="#000000">PersonsModule</text>
</g>
<!-- PersonFormComponent&#45;&gt;PersonsModule -->
<g id="edge1" class="edge">
<title>PersonFormComponent&#45;&gt;PersonsModule</title>
<path fill="none" stroke="#000000" d="M2011,-122.0908C2011,-145.1328 2011,-182 2011,-182 2011,-182 1106.5948,-182 1106.5948,-182"/>
<polygon fill="#000000" stroke="#000000" points="1106.5949,-178.5001 1096.5948,-182 1106.5948,-185.5001 1106.5949,-178.5001"/>
</g>
<!-- PersonListComponent -->
<g id="node2" class="node">
<title>PersonListComponent</title>
<polygon fill="#ffffb3" stroke="#000000" points="1918.7134,-122 1777.2866,-122 1777.2866,-86 1918.7134,-86 1918.7134,-122"/>
<text text-anchor="middle" x="1848" y="-99.8" font-family="Times,serif" font-size="14.00" fill="#000000">PersonListComponent</text>
</g>
<!-- PersonListComponent&#45;&gt;PersonsModule -->
<g id="edge2" class="edge">
<title>PersonListComponent&#45;&gt;PersonsModule</title>
<path fill="none" stroke="#000000" d="M1848,-122.2843C1848,-143.3211 1848,-175 1848,-175 1848,-175 1106.7602,-175 1106.7602,-175"/>
<polygon fill="#000000" stroke="#000000" points="1106.7602,-171.5001 1096.7602,-175 1106.7601,-178.5001 1106.7602,-171.5001"/>
</g>
<!-- PersonsComponent -->
<g id="node3" class="node">
<title>PersonsComponent</title>
<polygon fill="#ffffb3" stroke="#000000" points="1759.3795,-122 1634.6205,-122 1634.6205,-86 1759.3795,-86 1759.3795,-122"/>
<text text-anchor="middle" x="1697" y="-99.8" font-family="Times,serif" font-size="14.00" fill="#000000">PersonsComponent</text>
</g>
<!-- PersonsComponent&#45;&gt;PersonsModule -->
<g id="edge3" class="edge">
<title>PersonsComponent&#45;&gt;PersonsModule</title>
<path fill="none" stroke="#000000" d="M1697,-122.1061C1697,-141.3391 1697,-169 1697,-169 1697,-169 1106.7063,-169 1106.7063,-169"/>
<polygon fill="#000000" stroke="#000000" points="1106.7064,-165.5001 1096.7063,-169 1106.7063,-172.5001 1106.7064,-165.5001"/>
</g>
<!-- ControlWebDavModule -->
<g id="node5" class="node">
<title>ControlWebDavModule</title>
<polygon fill="#8dd3c7" stroke="#000000" points="1611.0786,-122 1608.0786,-126 1587.0786,-126 1584.0786,-122 1458.9214,-122 1458.9214,-86 1611.0786,-86 1611.0786,-122"/>
<text text-anchor="middle" x="1535" y="-99.8" font-family="Times,serif" font-size="14.00" fill="#000000">ControlWebDavModule</text>
</g>
<!-- ControlWebDavModule&#45;&gt;PersonsModule -->
<g id="edge4" class="edge">
<title>ControlWebDavModule&#45;&gt;PersonsModule</title>
<path fill="none" stroke="#000000" d="M1535,-122.0225C1535,-139.3734 1535,-163 1535,-163 1535,-163 1106.9747,-163 1106.9747,-163"/>
<polygon fill="#000000" stroke="#000000" points="1106.9747,-159.5001 1096.9747,-163 1106.9747,-166.5001 1106.9747,-159.5001"/>
</g>
<!-- DocumentGenerationModule -->
<g id="node6" class="node">
<title>DocumentGenerationModule</title>
<polygon fill="#8dd3c7" stroke="#000000" points="1441.059,-122 1438.059,-126 1417.059,-126 1414.059,-122 1260.941,-122 1260.941,-86 1441.059,-86 1441.059,-122"/>
<text text-anchor="middle" x="1351" y="-99.8" font-family="Times,serif" font-size="14.00" fill="#000000">DocumentGenerationModule</text>
</g>
<!-- DocumentGenerationModule&#45;&gt;PersonsModule -->
<g id="edge5" class="edge">
<title>DocumentGenerationModule&#45;&gt;PersonsModule</title>
<path fill="none" stroke="#000000" d="M1351,-122.2396C1351,-137.5706 1351,-157 1351,-157 1351,-157 1106.5627,-157 1106.5627,-157"/>
<polygon fill="#000000" stroke="#000000" points="1106.5627,-153.5001 1096.5627,-157 1106.5627,-160.5001 1106.5627,-153.5001"/>
</g>
<!-- DocumentReportViewerModule -->
<g id="node7" class="node">
<title>DocumentReportViewerModule</title>
<polygon fill="#8dd3c7" stroke="#000000" points="1242.6629,-122 1239.6629,-126 1218.6629,-126 1215.6629,-122 1045.3371,-122 1045.3371,-86 1242.6629,-86 1242.6629,-122"/>
<text text-anchor="middle" x="1144" y="-99.8" font-family="Times,serif" font-size="14.00" fill="#000000">DocumentReportViewerModule</text>
</g>
<!-- DocumentReportViewerModule&#45;&gt;PersonsModule -->
<g id="edge6" class="edge">
<title>DocumentReportViewerModule&#45;&gt;PersonsModule</title>
<path fill="none" stroke="#000000" d="M1070.9835,-122.1061C1070.9835,-122.1061 1070.9835,-140.991 1070.9835,-140.991"/>
<polygon fill="#000000" stroke="#000000" points="1067.4836,-140.9909 1070.9835,-150.991 1074.4836,-140.991 1067.4836,-140.9909"/>
</g>
<!-- LayoutContainersModule -->
<g id="node8" class="node">
<title>LayoutContainersModule</title>
<polygon fill="#8dd3c7" stroke="#000000" points="1026.8599,-122 1023.8599,-126 1002.8599,-126 999.8599,-122 867.1401,-122 867.1401,-86 1026.8599,-86 1026.8599,-122"/>
<text text-anchor="middle" x="947" y="-99.8" font-family="Times,serif" font-size="14.00" fill="#000000">LayoutContainersModule</text>
</g>
<!-- LayoutContainersModule&#45;&gt;PersonsModule -->
<g id="edge7" class="edge">
<title>LayoutContainersModule&#45;&gt;PersonsModule</title>
<path fill="none" stroke="#000000" d="M1010.1908,-122.1061C1010.1908,-122.1061 1010.1908,-140.991 1010.1908,-140.991"/>
<polygon fill="#000000" stroke="#000000" points="1006.6908,-140.9909 1010.1908,-150.991 1013.6908,-140.991 1006.6908,-140.9909"/>
</g>
<!-- PersonsRoutingModule -->
<g id="node9" class="node">
<title>PersonsRoutingModule</title>
<polygon fill="#8dd3c7" stroke="#000000" points="849.2148,-122 846.2148,-126 825.2148,-126 822.2148,-122 700.7852,-122 700.7852,-86 849.2148,-86 849.2148,-122"/>
<text text-anchor="middle" x="775" y="-99.8" font-family="Times,serif" font-size="14.00" fill="#000000">PersonsRoutingModule</text>
</g>
<!-- PersonsRoutingModule&#45;&gt;PersonsModule -->
<g id="edge8" class="edge">
<title>PersonsRoutingModule&#45;&gt;PersonsModule</title>
<path fill="none" stroke="#000000" d="M775,-122.2396C775,-137.5706 775,-157 775,-157 775,-157 983.2608,-157 983.2608,-157"/>
<polygon fill="#000000" stroke="#000000" points="983.2608,-160.5001 993.2608,-157 983.2607,-153.5001 983.2608,-160.5001"/>
</g>
<!-- PersonsApiClient -->
<g id="node10" class="node">
<title>PersonsApiClient</title>
<ellipse fill="#fdb462" stroke="#000000" cx="598" cy="-104" rx="79.329" ry="18"/>
<text text-anchor="middle" x="598" y="-99.8" font-family="Times,serif" font-size="14.00" fill="#000000">PersonsApiClient</text>
</g>
<!-- PersonsApiClient&#45;&gt;PersonsModule -->
<g id="edge9" class="edge">
<title>PersonsApiClient&#45;&gt;PersonsModule</title>
<path fill="none" stroke="#000000" d="M598,-122.0225C598,-139.3734 598,-163 598,-163 598,-163 983.2867,-163 983.2867,-163"/>
<polygon fill="#000000" stroke="#000000" points="983.2868,-166.5001 993.2867,-163 983.2867,-159.5001 983.2868,-166.5001"/>
</g>
<!-- PersonsResolver -->
<g id="node11" class="node">
<title>PersonsResolver</title>
<ellipse fill="#fdb462" stroke="#000000" cx="425" cy="-104" rx="75.2983" ry="18"/>
<text text-anchor="middle" x="425" y="-99.8" font-family="Times,serif" font-size="14.00" fill="#000000">PersonsResolver</text>
</g>
<!-- PersonsResolver&#45;&gt;PersonsModule -->
<g id="edge10" class="edge">
<title>PersonsResolver&#45;&gt;PersonsModule</title>
<path fill="none" stroke="#000000" d="M425,-122.1061C425,-141.3391 425,-169 425,-169 425,-169 983.2055,-169 983.2055,-169"/>
<polygon fill="#000000" stroke="#000000" points="983.2056,-172.5001 993.2055,-169 983.2055,-165.5001 983.2056,-172.5001"/>
</g>
<!-- PersonsSandbox -->
<g id="node12" class="node">
<title>PersonsSandbox</title>
<ellipse fill="#fdb462" stroke="#000000" cx="257" cy="-104" rx="74.7438" ry="18"/>
<text text-anchor="middle" x="257" y="-99.8" font-family="Times,serif" font-size="14.00" fill="#000000">PersonsSandbox</text>
</g>
<!-- PersonsSandbox&#45;&gt;PersonsModule -->
<g id="edge11" class="edge">
<title>PersonsSandbox&#45;&gt;PersonsModule</title>
<path fill="none" stroke="#000000" d="M257,-122.2843C257,-143.3211 257,-175 257,-175 257,-175 983.2971,-175 983.2971,-175"/>
<polygon fill="#000000" stroke="#000000" points="983.2972,-178.5001 993.2971,-175 983.2971,-171.5001 983.2972,-178.5001"/>
</g>
<!-- PersonsService -->
<g id="node13" class="node">
<title>PersonsService</title>
<ellipse fill="#fdb462" stroke="#000000" cx="94" cy="-104" rx="70.0596" ry="18"/>
<text text-anchor="middle" x="94" y="-99.8" font-family="Times,serif" font-size="14.00" fill="#000000">PersonsService</text>
</g>
<!-- PersonsService&#45;&gt;PersonsModule -->
<g id="edge12" class="edge">
<title>PersonsService&#45;&gt;PersonsModule</title>
<path fill="none" stroke="#000000" d="M94,-122.0908C94,-145.1328 94,-182 94,-182 94,-182 983.1947,-182 983.1947,-182"/>
<polygon fill="#000000" stroke="#000000" points="983.1948,-185.5001 993.1947,-182 983.1947,-178.5001 983.1948,-185.5001"/>
</g>
</g>
</svg>
