<?xml version="1.0" encoding="UTF-8" standalone="no"?>
<!DOCTYPE svg PUBLIC "-//W3C//DTD SVG 1.1//EN"
 "http://www.w3.org/Graphics/SVG/1.1/DTD/svg11.dtd">
<!-- Generated by graphviz version 2.40.1 (20161225.0304)
 -->
<!-- Title: dependencies Pages: 1 -->
<svg width="609pt" height="284pt"
 viewBox="0.00 0.00 609.00 284.00" xmlns="http://www.w3.org/2000/svg" xmlns:xlink="http://www.w3.org/1999/xlink">
<g id="graph0" class="graph" transform="scale(1 1) rotate(0) translate(4 280)">
<title>dependencies</title>
<polygon fill="#ffffff" stroke="transparent" points="-4,4 -4,-280 605,-280 605,4 -4,4"/>
<text text-anchor="start" x="279.5091" y="-42.4" font-family="sans-serif" font-weight="bold" font-size="14.00" fill="#000000">Legend</text>
<polygon fill="#ffffb3" stroke="transparent" points="66.5,-10 66.5,-30 86.5,-30 86.5,-10 66.5,-10"/>
<text text-anchor="start" x="90.129" y="-15.4" font-family="sans-serif" font-size="14.00" fill="#000000"> &#160;Declarations</text>
<polygon fill="#8dd3c7" stroke="transparent" points="179.5,-10 179.5,-30 199.5,-30 199.5,-10 179.5,-10"/>
<text text-anchor="start" x="203.2251" y="-15.4" font-family="sans-serif" font-size="14.00" fill="#000000"> &#160;Module</text>
<polygon fill="#80b1d3" stroke="transparent" points="265.5,-10 265.5,-30 285.5,-30 285.5,-10 265.5,-10"/>
<text text-anchor="start" x="289.2812" y="-15.4" font-family="sans-serif" font-size="14.00" fill="#000000"> &#160;Bootstrap</text>
<polygon fill="#fdb462" stroke="transparent" points="362.5,-10 362.5,-30 382.5,-30 382.5,-10 362.5,-10"/>
<text text-anchor="start" x="386.1732" y="-15.4" font-family="sans-serif" font-size="14.00" fill="#000000"> &#160;Providers</text>
<polygon fill="#fb8072" stroke="transparent" points="458.5,-10 458.5,-30 478.5,-30 478.5,-10 458.5,-10"/>
<text text-anchor="start" x="482.2258" y="-15.4" font-family="sans-serif" font-size="14.00" fill="#000000"> &#160;Exports</text>
<g id="clust1" class="cluster">
<title>cluster_DocumentReportViewerModule</title>
<polygon fill="none" stroke="#000000" stroke-dasharray="1,5" points="8,-70 8,-268 593,-268 593,-70 8,-70"/>
</g>
<g id="clust2" class="cluster">
<title>cluster_DocumentReportViewerModule_declarations</title>
<polygon fill="none" stroke="#000000" points="172,-78 172,-130 585,-130 585,-78 172,-78"/>
</g>
<g id="clust6" class="cluster">
<title>cluster_DocumentReportViewerModule_exports</title>
<polygon fill="none" stroke="#000000" points="90,-208 90,-260 510,-260 510,-208 90,-208"/>
</g>
<g id="clust8" class="cluster">
<title>cluster_DocumentReportViewerModule_providers</title>
<polygon fill="none" stroke="#000000" points="16,-78 16,-130 164,-130 164,-78 16,-78"/>
</g>
<!-- DocumentReportViewerComponent -->
<g id="node1" class="node">
<title>DocumentReportViewerComponent</title>
<polygon fill="#ffffb3" stroke="#000000" points="577.4454,-122 358.5546,-122 358.5546,-86 577.4454,-86 577.4454,-122"/>
<text text-anchor="middle" x="468" y="-99.8" font-family="Times,serif" font-size="14.00" fill="#000000">DocumentReportViewerComponent</text>
</g>
<!-- DocumentReportViewerModule -->
<g id="node3" class="node">
<title>DocumentReportViewerModule</title>
<polygon fill="#8dd3c7" stroke="#000000" points="358.6629,-187 355.6629,-191 334.6629,-191 331.6629,-187 161.3371,-187 161.3371,-151 358.6629,-151 358.6629,-187"/>
<text text-anchor="middle" x="260" y="-164.8" font-family="Times,serif" font-size="14.00" fill="#000000">DocumentReportViewerModule</text>
</g>
<!-- DocumentReportViewerComponent&#45;&gt;DocumentReportViewerModule -->
<g id="edge1" class="edge">
<title>DocumentReportViewerComponent&#45;&gt;DocumentReportViewerModule</title>
<path fill="none" stroke="#000000" d="M358.3335,-104C352.7663,-104 349.4208,-104 349.4208,-104 349.4208,-104 349.4208,-140.8939 349.4208,-140.8939"/>
<polygon fill="#000000" stroke="#000000" points="345.9208,-140.8938 349.4208,-150.8939 352.9208,-140.8939 345.9208,-140.8938"/>
</g>
<!-- ReportViewerComponent -->
<g id="node2" class="node">
<title>ReportViewerComponent</title>
<polygon fill="#ffffb3" stroke="#000000" points="340.1288,-122 179.8712,-122 179.8712,-86 340.1288,-86 340.1288,-122"/>
<text text-anchor="middle" x="260" y="-99.8" font-family="Times,serif" font-size="14.00" fill="#000000">ReportViewerComponent</text>
</g>
<!-- ReportViewerComponent&#45;&gt;DocumentReportViewerModule -->
<g id="edge2" class="edge">
<title>ReportViewerComponent&#45;&gt;DocumentReportViewerModule</title>
<path fill="none" stroke="#000000" d="M260,-122.1061C260,-122.1061 260,-140.991 260,-140.991"/>
<polygon fill="#000000" stroke="#000000" points="256.5001,-140.9909 260,-150.991 263.5001,-140.991 256.5001,-140.9909"/>
</g>
<!-- DocumentReportViewerComponent  -->
<g id="node4" class="node">
<title>DocumentReportViewerComponent </title>
<polygon fill="#fb8072" stroke="#000000" points="502.4458,-252 279.5542,-252 279.5542,-216 502.4458,-216 502.4458,-252"/>
<text text-anchor="middle" x="391" y="-229.8" font-family="Times,serif" font-size="14.00" fill="#000000">DocumentReportViewerComponent </text>
</g>
<!-- DocumentReportViewerModule&#45;&gt;DocumentReportViewerComponent  -->
<g id="edge3" class="edge">
<title>DocumentReportViewerModule&#45;&gt;DocumentReportViewerComponent </title>
<path fill="none" stroke="#000000" stroke-dasharray="5,2" d="M319.1794,-187.1061C319.1794,-187.1061 319.1794,-205.991 319.1794,-205.991"/>
<polygon fill="#000000" stroke="#000000" points="315.6794,-205.9909 319.1794,-215.991 322.6794,-205.991 315.6794,-205.9909"/>
</g>
<!-- ReportViewerComponent  -->
<g id="node5" class="node">
<title>ReportViewerComponent </title>
<polygon fill="#fb8072" stroke="#000000" points="262.1285,-252 97.8715,-252 97.8715,-216 262.1285,-216 262.1285,-252"/>
<text text-anchor="middle" x="180" y="-229.8" font-family="Times,serif" font-size="14.00" fill="#000000">ReportViewerComponent </text>
</g>
<!-- DocumentReportViewerModule&#45;&gt;ReportViewerComponent  -->
<g id="edge4" class="edge">
<title>DocumentReportViewerModule&#45;&gt;ReportViewerComponent </title>
<path fill="none" stroke="#000000" stroke-dasharray="5,2" d="M211.7414,-187.1061C211.7414,-187.1061 211.7414,-205.991 211.7414,-205.991"/>
<polygon fill="#000000" stroke="#000000" points="208.2415,-205.9909 211.7414,-215.991 215.2415,-205.991 208.2415,-205.9909"/>
</g>
<!-- ReportService -->
<g id="node6" class="node">
<title>ReportService</title>
<ellipse fill="#fdb462" stroke="#000000" cx="90" cy="-104" rx="66.0492" ry="18"/>
<text text-anchor="middle" x="90" y="-99.8" font-family="Times,serif" font-size="14.00" fill="#000000">ReportService</text>
</g>
<!-- ReportService&#45;&gt;DocumentReportViewerModule -->
<g id="edge5" class="edge">
<title>ReportService&#45;&gt;DocumentReportViewerModule</title>
<path fill="none" stroke="#000000" d="M156.5211,-104C164.8687,-104 170.5522,-104 170.5522,-104 170.5522,-104 170.5522,-140.8939 170.5522,-140.8939"/>
<polygon fill="#000000" stroke="#000000" points="167.0523,-140.8938 170.5522,-150.8939 174.0523,-140.8939 167.0523,-140.8938"/>
</g>
</g>
</svg>
