<?xml version="1.0" encoding="UTF-8" standalone="no"?>
<!DOCTYPE svg PUBLIC "-//W3C//DTD SVG 1.1//EN"
 "http://www.w3.org/Graphics/SVG/1.1/DTD/svg11.dtd">
<!-- Generated by graphviz version 2.40.1 (20161225.0304)
 -->
<!-- Title: dependencies Pages: 1 -->
<svg width="504pt" height="284pt"
 viewBox="0.00 0.00 504.00 284.00" xmlns="http://www.w3.org/2000/svg" xmlns:xlink="http://www.w3.org/1999/xlink">
<g id="graph0" class="graph" transform="scale(1 1) rotate(0) translate(4 280)">
<title>dependencies</title>
<polygon fill="#ffffff" stroke="transparent" points="-4,4 -4,-280 500,-280 500,4 -4,4"/>
<text text-anchor="start" x="227.0091" y="-42.4" font-family="sans-serif" font-weight="bold" font-size="14.00" fill="#000000">Legend</text>
<polygon fill="#ffffb3" stroke="transparent" points="14,-10 14,-30 34,-30 34,-10 14,-10"/>
<text text-anchor="start" x="37.629" y="-15.4" font-family="sans-serif" font-size="14.00" fill="#000000"> &#160;Declarations</text>
<polygon fill="#8dd3c7" stroke="transparent" points="127,-10 127,-30 147,-30 147,-10 127,-10"/>
<text text-anchor="start" x="150.7251" y="-15.4" font-family="sans-serif" font-size="14.00" fill="#000000"> &#160;Module</text>
<polygon fill="#80b1d3" stroke="transparent" points="213,-10 213,-30 233,-30 233,-10 213,-10"/>
<text text-anchor="start" x="236.7812" y="-15.4" font-family="sans-serif" font-size="14.00" fill="#000000"> &#160;Bootstrap</text>
<polygon fill="#fdb462" stroke="transparent" points="310,-10 310,-30 330,-30 330,-10 310,-10"/>
<text text-anchor="start" x="333.6732" y="-15.4" font-family="sans-serif" font-size="14.00" fill="#000000"> &#160;Providers</text>
<polygon fill="#fb8072" stroke="transparent" points="406,-10 406,-30 426,-30 426,-10 406,-10"/>
<text text-anchor="start" x="429.7258" y="-15.4" font-family="sans-serif" font-size="14.00" fill="#000000"> &#160;Exports</text>
<g id="clust1" class="cluster">
<title>cluster_DocumentGenerationModule</title>
<polygon fill="none" stroke="#000000" stroke-dasharray="1,5" points="38,-70 38,-268 458,-268 458,-70 38,-70"/>
</g>
<g id="clust2" class="cluster">
<title>cluster_DocumentGenerationModule_declarations</title>
<polygon fill="none" stroke="#000000" points="232,-78 232,-130 450,-130 450,-78 232,-78"/>
</g>
<g id="clust5" class="cluster">
<title>cluster_DocumentGenerationModule_exports</title>
<polygon fill="none" stroke="#000000" points="137,-208 137,-260 359,-260 359,-208 137,-208"/>
</g>
<g id="clust7" class="cluster">
<title>cluster_DocumentGenerationModule_providers</title>
<polygon fill="none" stroke="#000000" points="46,-78 46,-130 224,-130 224,-78 46,-78"/>
</g>
<!-- DocumentGenerationComponent -->
<g id="node1" class="node">
<title>DocumentGenerationComponent</title>
<polygon fill="#ffffb3" stroke="#000000" points="441.8417,-122 240.1583,-122 240.1583,-86 441.8417,-86 441.8417,-122"/>
<text text-anchor="middle" x="341" y="-99.8" font-family="Times,serif" font-size="14.00" fill="#000000">DocumentGenerationComponent</text>
</g>
<!-- DocumentGenerationModule -->
<g id="node2" class="node">
<title>DocumentGenerationModule</title>
<polygon fill="#8dd3c7" stroke="#000000" points="338.059,-187 335.059,-191 314.059,-191 311.059,-187 157.941,-187 157.941,-151 338.059,-151 338.059,-187"/>
<text text-anchor="middle" x="248" y="-164.8" font-family="Times,serif" font-size="14.00" fill="#000000">DocumentGenerationModule</text>
</g>
<!-- DocumentGenerationComponent&#45;&gt;DocumentGenerationModule -->
<g id="edge1" class="edge">
<title>DocumentGenerationComponent&#45;&gt;DocumentGenerationModule</title>
<path fill="none" stroke="#000000" d="M289.0544,-122.1061C289.0544,-122.1061 289.0544,-140.991 289.0544,-140.991"/>
<polygon fill="#000000" stroke="#000000" points="285.5544,-140.9909 289.0544,-150.991 292.5544,-140.991 285.5544,-140.9909"/>
</g>
<!-- DocumentGenerationComponent  -->
<g id="node3" class="node">
<title>DocumentGenerationComponent </title>
<polygon fill="#fb8072" stroke="#000000" points="350.8419,-252 145.1581,-252 145.1581,-216 350.8419,-216 350.8419,-252"/>
<text text-anchor="middle" x="248" y="-229.8" font-family="Times,serif" font-size="14.00" fill="#000000">DocumentGenerationComponent </text>
</g>
<!-- DocumentGenerationModule&#45;&gt;DocumentGenerationComponent  -->
<g id="edge2" class="edge">
<title>DocumentGenerationModule&#45;&gt;DocumentGenerationComponent </title>
<path fill="none" stroke="#000000" stroke-dasharray="5,2" d="M248,-187.1061C248,-187.1061 248,-205.991 248,-205.991"/>
<polygon fill="#000000" stroke="#000000" points="244.5001,-205.9909 248,-215.991 251.5001,-205.991 244.5001,-205.9909"/>
</g>
<!-- DocumentsHelper -->
<g id="node4" class="node">
<title>DocumentsHelper</title>
<ellipse fill="#fdb462" stroke="#000000" cx="135" cy="-104" rx="81.0802" ry="18"/>
<text text-anchor="middle" x="135" y="-99.8" font-family="Times,serif" font-size="14.00" fill="#000000">DocumentsHelper</text>
</g>
<!-- DocumentsHelper&#45;&gt;DocumentGenerationModule -->
<g id="edge3" class="edge">
<title>DocumentsHelper&#45;&gt;DocumentGenerationModule</title>
<path fill="none" stroke="#000000" d="M187.1302,-118.104C187.1302,-118.104 187.1302,-140.7209 187.1302,-140.7209"/>
<polygon fill="#000000" stroke="#000000" points="183.6303,-140.7209 187.1302,-150.7209 190.6303,-140.7209 183.6303,-140.7209"/>
</g>
</g>
</svg>
