<?xml version="1.0" encoding="UTF-8" standalone="no"?>
<!DOCTYPE svg PUBLIC "-//W3C//DTD SVG 1.1//EN"
 "http://www.w3.org/Graphics/SVG/1.1/DTD/svg11.dtd">
<!-- Generated by graphviz version 2.40.1 (20161225.0304)
 -->
<!-- Title: dependencies Pages: 1 -->
<svg width="2159pt" height="349pt"
 viewBox="0.00 0.00 2159.00 349.00" xmlns="http://www.w3.org/2000/svg" xmlns:xlink="http://www.w3.org/1999/xlink">
<g id="graph0" class="graph" transform="scale(1 1) rotate(0) translate(4 345)">
<title>dependencies</title>
<polygon fill="#ffffff" stroke="transparent" points="-4,4 -4,-345 2155,-345 2155,4 -4,4"/>
<text text-anchor="start" x="1054.5091" y="-42.4" font-family="sans-serif" font-weight="bold" font-size="14.00" fill="#000000">Legend</text>
<polygon fill="#ffffb3" stroke="transparent" points="841.5,-10 841.5,-30 861.5,-30 861.5,-10 841.5,-10"/>
<text text-anchor="start" x="865.129" y="-15.4" font-family="sans-serif" font-size="14.00" fill="#000000"> &#160;Declarations</text>
<polygon fill="#8dd3c7" stroke="transparent" points="954.5,-10 954.5,-30 974.5,-30 974.5,-10 954.5,-10"/>
<text text-anchor="start" x="978.2251" y="-15.4" font-family="sans-serif" font-size="14.00" fill="#000000"> &#160;Module</text>
<polygon fill="#80b1d3" stroke="transparent" points="1040.5,-10 1040.5,-30 1060.5,-30 1060.5,-10 1040.5,-10"/>
<text text-anchor="start" x="1064.2812" y="-15.4" font-family="sans-serif" font-size="14.00" fill="#000000"> &#160;Bootstrap</text>
<polygon fill="#fdb462" stroke="transparent" points="1137.5,-10 1137.5,-30 1157.5,-30 1157.5,-10 1137.5,-10"/>
<text text-anchor="start" x="1161.1732" y="-15.4" font-family="sans-serif" font-size="14.00" fill="#000000"> &#160;Providers</text>
<polygon fill="#fb8072" stroke="transparent" points="1233.5,-10 1233.5,-30 1253.5,-30 1253.5,-10 1233.5,-10"/>
<text text-anchor="start" x="1257.2258" y="-15.4" font-family="sans-serif" font-size="14.00" fill="#000000"> &#160;Exports</text>
<g id="clust1" class="cluster">
<title>cluster_AppModule</title>
<polygon fill="none" stroke="#000000" stroke-dasharray="1,5" points="8,-70 8,-333 2143,-333 2143,-70 8,-70"/>
</g>
<g id="clust2" class="cluster">
<title>cluster_AppModule_declarations</title>
<polygon fill="none" stroke="#000000" points="2013,-143 2013,-195 2135,-195 2135,-143 2013,-143"/>
</g>
<g id="clust3" class="cluster">
<title>cluster_AppModule_AppComponent_providers</title>
<polygon fill="none" stroke="#000000" points="1997,-78 1997,-130 2135,-130 2135,-78 1997,-78"/>
</g>
<g id="clust4" class="cluster">
<title>cluster_AppModule_imports</title>
<polygon fill="none" stroke="#000000" points="1602,-143 1602,-195 2005,-195 2005,-143 1602,-143"/>
</g>
<g id="clust6" class="cluster">
<title>cluster_AppModule_bootstrap</title>
<polygon fill="none" stroke="#000000" points="1104,-273 1104,-325 1228,-325 1228,-273 1104,-273"/>
</g>
<g id="clust7" class="cluster">
<title>cluster_AppModule_providers</title>
<polygon fill="none" stroke="#000000" points="16,-143 16,-195 1594,-195 1594,-143 16,-143"/>
</g>
<!-- AppComponent -->
<g id="node1" class="node">
<title>AppComponent</title>
<polygon fill="#ffffb3" stroke="#000000" points="2126.9399,-187 2021.0601,-187 2021.0601,-151 2126.9399,-151 2126.9399,-187"/>
<text text-anchor="middle" x="2074" y="-164.8" font-family="Times,serif" font-size="14.00" fill="#000000">AppComponent</text>
</g>
<!-- AppModule -->
<g id="node2" class="node">
<title>AppModule</title>
<polygon fill="#8dd3c7" stroke="#000000" points="1207.6571,-252 1204.6571,-256 1183.6571,-256 1180.6571,-252 1124.3429,-252 1124.3429,-216 1207.6571,-216 1207.6571,-252"/>
<text text-anchor="middle" x="1166" y="-229.8" font-family="Times,serif" font-size="14.00" fill="#000000">AppModule</text>
</g>
<!-- AppComponent&#45;&gt;AppModule -->
<g id="edge1" class="edge">
<title>AppComponent&#45;&gt;AppModule</title>
<path fill="none" stroke="#000000" d="M2074,-187.0908C2074,-210.1328 2074,-247 2074,-247 2074,-247 1217.6735,-247 1217.6735,-247"/>
<polygon fill="#000000" stroke="#000000" points="1217.6736,-243.5001 1207.6735,-247 1217.6735,-250.5001 1217.6736,-243.5001"/>
</g>
<!-- AppComponent  -->
<g id="node7" class="node">
<title>AppComponent </title>
<polygon fill="#80b1d3" stroke="#000000" points="1220.439,-317 1111.561,-317 1111.561,-281 1220.439,-281 1220.439,-317"/>
<text text-anchor="middle" x="1166" y="-294.8" font-family="Times,serif" font-size="14.00" fill="#000000">AppComponent </text>
</g>
<!-- AppModule&#45;&gt;AppComponent  -->
<g id="edge6" class="edge">
<title>AppModule&#45;&gt;AppComponent </title>
<path fill="none" stroke="#000000" stroke-dasharray="1,5" d="M1166,-252.1061C1166,-252.1061 1166,-270.991 1166,-270.991"/>
<polygon fill="#000000" stroke="#000000" points="1162.5001,-270.9909 1166,-280.991 1169.5001,-270.991 1162.5001,-270.9909"/>
</g>
<!-- AppSandbox -->
<g id="node3" class="node">
<title>AppSandbox</title>
<ellipse fill="#fdb462" stroke="#000000" cx="2066" cy="-104" rx="61.4244" ry="18"/>
<text text-anchor="middle" x="2066" y="-99.8" font-family="Times,serif" font-size="14.00" fill="#000000">AppSandbox</text>
</g>
<!-- AppSandbox&#45;&gt;AppComponent -->
<g id="edge2" class="edge">
<title>AppSandbox&#45;&gt;AppComponent</title>
<path fill="none" stroke="#000000" d="M2074,-122.1061C2074,-122.1061 2074,-140.991 2074,-140.991"/>
<polygon fill="#000000" stroke="#000000" points="2070.5001,-140.9909 2074,-150.991 2077.5001,-140.991 2070.5001,-140.9909"/>
</g>
<!-- AppRoutingModule -->
<g id="node4" class="node">
<title>AppRoutingModule</title>
<polygon fill="#8dd3c7" stroke="#000000" points="1997.2744,-187 1994.2744,-191 1973.2744,-191 1970.2744,-187 1868.7256,-187 1868.7256,-151 1997.2744,-151 1997.2744,-187"/>
<text text-anchor="middle" x="1933" y="-164.8" font-family="Times,serif" font-size="14.00" fill="#000000">AppRoutingModule</text>
</g>
<!-- AppRoutingModule&#45;&gt;AppModule -->
<g id="edge3" class="edge">
<title>AppRoutingModule&#45;&gt;AppModule</title>
<path fill="none" stroke="#000000" d="M1933,-187.0449C1933,-208.6623 1933,-242 1933,-242 1933,-242 1217.7819,-242 1217.7819,-242"/>
<polygon fill="#000000" stroke="#000000" points="1217.782,-238.5001 1207.7819,-242 1217.7819,-245.5001 1217.782,-238.5001"/>
</g>
<!-- HttpServiceModule -->
<g id="node5" class="node">
<title>HttpServiceModule</title>
<polygon fill="#8dd3c7" stroke="#000000" points="1850.4159,-187 1847.4159,-191 1826.4159,-191 1823.4159,-187 1723.5841,-187 1723.5841,-151 1850.4159,-151 1850.4159,-187"/>
<text text-anchor="middle" x="1787" y="-164.8" font-family="Times,serif" font-size="14.00" fill="#000000">HttpServiceModule</text>
</g>
<!-- HttpServiceModule&#45;&gt;AppModule -->
<g id="edge4" class="edge">
<title>HttpServiceModule&#45;&gt;AppModule</title>
<path fill="none" stroke="#000000" d="M1787,-187.2228C1787,-207.3652 1787,-237 1787,-237 1787,-237 1217.7098,-237 1217.7098,-237"/>
<polygon fill="#000000" stroke="#000000" points="1217.7099,-233.5001 1207.7098,-237 1217.7098,-240.5001 1217.7099,-233.5001"/>
</g>
<!-- UtilityModule -->
<g id="node6" class="node">
<title>UtilityModule</title>
<polygon fill="#8dd3c7" stroke="#000000" points="1706.1095,-187 1703.1095,-191 1682.1095,-191 1679.1095,-187 1609.8905,-187 1609.8905,-151 1706.1095,-151 1706.1095,-187"/>
<text text-anchor="middle" x="1658" y="-164.8" font-family="Times,serif" font-size="14.00" fill="#000000">UtilityModule</text>
</g>
<!-- UtilityModule&#45;&gt;AppModule -->
<g id="edge5" class="edge">
<title>UtilityModule&#45;&gt;AppModule</title>
<path fill="none" stroke="#000000" d="M1658,-187.2222C1658,-205.8285 1658,-232 1658,-232 1658,-232 1217.9476,-232 1217.9476,-232"/>
<polygon fill="#000000" stroke="#000000" points="1217.9477,-228.5001 1207.9476,-232 1217.9476,-235.5001 1217.9477,-228.5001"/>
</g>
<!-- AppApiClient -->
<g id="node8" class="node">
<title>AppApiClient</title>
<ellipse fill="#fdb462" stroke="#000000" cx="1520" cy="-169" rx="65.5103" ry="18"/>
<text text-anchor="middle" x="1520" y="-164.8" font-family="Times,serif" font-size="14.00" fill="#000000">AppApiClient</text>
</g>
<!-- AppApiClient&#45;&gt;AppModule -->
<g id="edge7" class="edge">
<title>AppApiClient&#45;&gt;AppModule</title>
<path fill="none" stroke="#000000" d="M1520,-187.0336C1520,-204.0597 1520,-227 1520,-227 1520,-227 1217.9986,-227 1217.9986,-227"/>
<polygon fill="#000000" stroke="#000000" points="1217.9986,-223.5001 1207.9986,-227 1217.9985,-230.5001 1217.9986,-223.5001"/>
</g>
<!-- AppService -->
<g id="node9" class="node">
<title>AppService</title>
<ellipse fill="#fdb462" stroke="#000000" cx="1380" cy="-169" rx="56.7406" ry="18"/>
<text text-anchor="middle" x="1380" y="-164.8" font-family="Times,serif" font-size="14.00" fill="#000000">AppService</text>
</g>
<!-- AppService&#45;&gt;AppModule -->
<g id="edge8" class="edge">
<title>AppService&#45;&gt;AppModule</title>
<path fill="none" stroke="#000000" d="M1380,-187.2396C1380,-202.5706 1380,-222 1380,-222 1380,-222 1217.7694,-222 1217.7694,-222"/>
<polygon fill="#000000" stroke="#000000" points="1217.7694,-218.5001 1207.7694,-222 1217.7693,-225.5001 1217.7694,-218.5001"/>
</g>
<!-- AuthApiClient -->
<g id="node10" class="node">
<title>AuthApiClient</title>
<ellipse fill="#fdb462" stroke="#000000" cx="1237" cy="-169" rx="68.3768" ry="18"/>
<text text-anchor="middle" x="1237" y="-164.8" font-family="Times,serif" font-size="14.00" fill="#000000">AuthApiClient</text>
</g>
<!-- AuthApiClient&#45;&gt;AppModule -->
<g id="edge9" class="edge">
<title>AuthApiClient&#45;&gt;AppModule</title>
<path fill="none" stroke="#000000" d="M1188.1949,-181.8419C1188.1949,-181.8419 1188.1949,-205.5231 1188.1949,-205.5231"/>
<polygon fill="#000000" stroke="#000000" points="1184.695,-205.523 1188.1949,-215.5231 1191.695,-205.5231 1184.695,-205.523"/>
</g>
<!-- AuthGuard -->
<g id="node11" class="node">
<title>AuthGuard</title>
<ellipse fill="#fdb462" stroke="#000000" cx="1096" cy="-169" rx="54.4566" ry="18"/>
<text text-anchor="middle" x="1096" y="-164.8" font-family="Times,serif" font-size="14.00" fill="#000000">AuthGuard</text>
</g>
<!-- AuthGuard&#45;&gt;AppModule -->
<g id="edge10" class="edge">
<title>AuthGuard&#45;&gt;AppModule</title>
<path fill="none" stroke="#000000" d="M1137.325,-180.922C1137.325,-180.922 1137.325,-205.7669 1137.325,-205.7669"/>
<polygon fill="#000000" stroke="#000000" points="1133.8251,-205.7669 1137.325,-215.7669 1140.8251,-205.7669 1133.8251,-205.7669"/>
</g>
<!-- AuthSandbox -->
<g id="node12" class="node">
<title>AuthSandbox</title>
<ellipse fill="#fdb462" stroke="#000000" cx="959" cy="-169" rx="64.292" ry="18"/>
<text text-anchor="middle" x="959" y="-164.8" font-family="Times,serif" font-size="14.00" fill="#000000">AuthSandbox</text>
</g>
<!-- AuthSandbox&#45;&gt;AppModule -->
<g id="edge11" class="edge">
<title>AuthSandbox&#45;&gt;AppModule</title>
<path fill="none" stroke="#000000" d="M959,-187.2396C959,-202.5706 959,-222 959,-222 959,-222 1114.1105,-222 1114.1105,-222"/>
<polygon fill="#000000" stroke="#000000" points="1114.1105,-225.5001 1124.1105,-222 1114.1104,-218.5001 1114.1105,-225.5001"/>
</g>
<!-- AuthorizeGuard -->
<g id="node13" class="node">
<title>AuthorizeGuard</title>
<ellipse fill="#fdb462" stroke="#000000" cx="803" cy="-169" rx="73.5579" ry="18"/>
<text text-anchor="middle" x="803" y="-164.8" font-family="Times,serif" font-size="14.00" fill="#000000">AuthorizeGuard</text>
</g>
<!-- AuthorizeGuard&#45;&gt;AppModule -->
<g id="edge12" class="edge">
<title>AuthorizeGuard&#45;&gt;AppModule</title>
<path fill="none" stroke="#000000" d="M803,-187.0336C803,-204.0597 803,-227 803,-227 803,-227 1114.0047,-227 1114.0047,-227"/>
<polygon fill="#000000" stroke="#000000" points="1114.0047,-230.5001 1124.0047,-227 1114.0046,-223.5001 1114.0047,-230.5001"/>
</g>
<!-- CanDeactivateGuard -->
<g id="node14" class="node">
<title>CanDeactivateGuard</title>
<ellipse fill="#fdb462" stroke="#000000" cx="619" cy="-169" rx="92.0123" ry="18"/>
<text text-anchor="middle" x="619" y="-164.8" font-family="Times,serif" font-size="14.00" fill="#000000">CanDeactivateGuard</text>
</g>
<!-- CanDeactivateGuard&#45;&gt;AppModule -->
<g id="edge13" class="edge">
<title>CanDeactivateGuard&#45;&gt;AppModule</title>
<path fill="none" stroke="#000000" d="M619,-187.2222C619,-205.8285 619,-232 619,-232 619,-232 1113.9861,-232 1113.9861,-232"/>
<polygon fill="#000000" stroke="#000000" points="1113.9861,-235.5001 1123.9861,-232 1113.9861,-228.5001 1113.9861,-235.5001"/>
</g>
<!-- ConfigService -->
<g id="node15" class="node">
<title>ConfigService</title>
<ellipse fill="#fdb462" stroke="#000000" cx="442" cy="-169" rx="66.6325" ry="18"/>
<text text-anchor="middle" x="442" y="-164.8" font-family="Times,serif" font-size="14.00" fill="#000000">ConfigService</text>
</g>
<!-- ConfigService&#45;&gt;AppModule -->
<g id="edge14" class="edge">
<title>ConfigService&#45;&gt;AppModule</title>
<path fill="none" stroke="#000000" d="M442,-187.2228C442,-207.3652 442,-237 442,-237 442,-237 1114.2101,-237 1114.2101,-237"/>
<polygon fill="#000000" stroke="#000000" points="1114.2102,-240.5001 1124.2101,-237 1114.2101,-233.5001 1114.2102,-240.5001"/>
</g>
<!-- DossierApiClient -->
<g id="node16" class="node">
<title>DossierApiClient</title>
<ellipse fill="#fdb462" stroke="#000000" cx="279" cy="-169" rx="78.7453" ry="18"/>
<text text-anchor="middle" x="279" y="-164.8" font-family="Times,serif" font-size="14.00" fill="#000000">DossierApiClient</text>
</g>
<!-- DossierApiClient&#45;&gt;AppModule -->
<g id="edge15" class="edge">
<title>DossierApiClient&#45;&gt;AppModule</title>
<path fill="none" stroke="#000000" d="M279,-187.0449C279,-208.6623 279,-242 279,-242 279,-242 1114.1118,-242 1114.1118,-242"/>
<polygon fill="#000000" stroke="#000000" points="1114.1119,-245.5001 1124.1118,-242 1114.1118,-238.5001 1114.1119,-245.5001"/>
</g>
<!-- PersonsApiClient -->
<g id="node17" class="node">
<title>PersonsApiClient</title>
<ellipse fill="#fdb462" stroke="#000000" cx="103" cy="-169" rx="79.329" ry="18"/>
<text text-anchor="middle" x="103" y="-164.8" font-family="Times,serif" font-size="14.00" fill="#000000">PersonsApiClient</text>
</g>
<!-- PersonsApiClient&#45;&gt;AppModule -->
<g id="edge16" class="edge">
<title>PersonsApiClient&#45;&gt;AppModule</title>
<path fill="none" stroke="#000000" d="M103,-187.0908C103,-210.1328 103,-247 103,-247 103,-247 1114.3291,-247 1114.3291,-247"/>
<polygon fill="#000000" stroke="#000000" points="1114.3292,-250.5001 1124.3291,-247 1114.3291,-243.5001 1114.3292,-250.5001"/>
</g>
</g>
</svg>
