<?xml version="1.0" encoding="UTF-8" standalone="no"?>
<!DOCTYPE svg PUBLIC "-//W3C//DTD SVG 1.1//EN"
 "http://www.w3.org/Graphics/SVG/1.1/DTD/svg11.dtd">
<!-- Generated by graphviz version 2.40.1 (20161225.0304)
 -->
<!-- Title: dependencies Pages: 1 -->
<svg width="1555pt" height="211pt"
 viewBox="0.00 0.00 1555.00 211.00" xmlns="http://www.w3.org/2000/svg" xmlns:xlink="http://www.w3.org/1999/xlink">
<g id="graph0" class="graph" transform="scale(1 1) rotate(0) translate(4 207)">
<title>dependencies</title>
<polygon fill="#ffffff" stroke="transparent" points="-4,4 -4,-207 1551,-207 1551,4 -4,4"/>
<text text-anchor="start" x="752.5091" y="-42.4" font-family="sans-serif" font-weight="bold" font-size="14.00" fill="#000000">Legend</text>
<polygon fill="#ffffb3" stroke="transparent" points="539.5,-10 539.5,-30 559.5,-30 559.5,-10 539.5,-10"/>
<text text-anchor="start" x="563.129" y="-15.4" font-family="sans-serif" font-size="14.00" fill="#000000"> &#160;Declarations</text>
<polygon fill="#8dd3c7" stroke="transparent" points="652.5,-10 652.5,-30 672.5,-30 672.5,-10 652.5,-10"/>
<text text-anchor="start" x="676.2251" y="-15.4" font-family="sans-serif" font-size="14.00" fill="#000000"> &#160;Module</text>
<polygon fill="#80b1d3" stroke="transparent" points="738.5,-10 738.5,-30 758.5,-30 758.5,-10 738.5,-10"/>
<text text-anchor="start" x="762.2812" y="-15.4" font-family="sans-serif" font-size="14.00" fill="#000000"> &#160;Bootstrap</text>
<polygon fill="#fdb462" stroke="transparent" points="835.5,-10 835.5,-30 855.5,-30 855.5,-10 835.5,-10"/>
<text text-anchor="start" x="859.1732" y="-15.4" font-family="sans-serif" font-size="14.00" fill="#000000"> &#160;Providers</text>
<polygon fill="#fb8072" stroke="transparent" points="931.5,-10 931.5,-30 951.5,-30 951.5,-10 931.5,-10"/>
<text text-anchor="start" x="955.2258" y="-15.4" font-family="sans-serif" font-size="14.00" fill="#000000"> &#160;Exports</text>
<g id="clust1" class="cluster">
<title>cluster_DossierNavigatorModule</title>
<polygon fill="none" stroke="#000000" stroke-dasharray="1,5" points="8,-70 8,-195 1539,-195 1539,-70 8,-70"/>
</g>
<g id="clust2" class="cluster">
<title>cluster_DossierNavigatorModule_declarations</title>
<polygon fill="none" stroke="#000000" points="871,-78 871,-130 1531,-130 1531,-78 871,-78"/>
</g>
<g id="clust7" class="cluster">
<title>cluster_DossierNavigatorModule_imports</title>
<polygon fill="none" stroke="#000000" points="521,-78 521,-130 863,-130 863,-78 521,-78"/>
</g>
<g id="clust10" class="cluster">
<title>cluster_DossierNavigatorModule_providers</title>
<polygon fill="none" stroke="#000000" points="16,-78 16,-130 513,-130 513,-78 16,-78"/>
</g>
<!-- DossierNavigatorComponent -->
<g id="node1" class="node">
<title>DossierNavigatorComponent</title>
<polygon fill="#ffffb3" stroke="#000000" points="1523.0716,-122 1342.9284,-122 1342.9284,-86 1523.0716,-86 1523.0716,-122"/>
<text text-anchor="middle" x="1433" y="-99.8" font-family="Times,serif" font-size="14.00" fill="#000000">DossierNavigatorComponent</text>
</g>
<!-- DossierNavigatorModule -->
<g id="node5" class="node">
<title>DossierNavigatorModule</title>
<polygon fill="#8dd3c7" stroke="#000000" points="860.2893,-187 857.2893,-191 836.2893,-191 833.2893,-187 701.7107,-187 701.7107,-151 860.2893,-151 860.2893,-187"/>
<text text-anchor="middle" x="781" y="-164.8" font-family="Times,serif" font-size="14.00" fill="#000000">DossierNavigatorModule</text>
</g>
<!-- DossierNavigatorComponent&#45;&gt;DossierNavigatorModule -->
<g id="edge1" class="edge">
<title>DossierNavigatorComponent&#45;&gt;DossierNavigatorModule</title>
<path fill="none" stroke="#000000" d="M1433,-122.0109C1433,-144.4852 1433,-180 1433,-180 1433,-180 870.2962,-180 870.2962,-180"/>
<polygon fill="#000000" stroke="#000000" points="870.2962,-176.5001 860.2962,-180 870.2961,-183.5001 870.2962,-176.5001"/>
</g>
<!-- NavFiltersComponent -->
<g id="node2" class="node">
<title>NavFiltersComponent</title>
<polygon fill="#ffffb3" stroke="#000000" points="1325.4285,-122 1184.5715,-122 1184.5715,-86 1325.4285,-86 1325.4285,-122"/>
<text text-anchor="middle" x="1255" y="-99.8" font-family="Times,serif" font-size="14.00" fill="#000000">NavFiltersComponent</text>
</g>
<!-- NavFiltersComponent&#45;&gt;DossierNavigatorModule -->
<g id="edge2" class="edge">
<title>NavFiltersComponent&#45;&gt;DossierNavigatorModule</title>
<path fill="none" stroke="#000000" d="M1255,-122.1289C1255,-142.5724 1255,-173 1255,-173 1255,-173 870.3369,-173 870.3369,-173"/>
<polygon fill="#000000" stroke="#000000" points="870.337,-169.5001 860.3369,-173 870.3369,-176.5001 870.337,-169.5001"/>
</g>
<!-- TreeDetailComponent -->
<g id="node3" class="node">
<title>TreeDetailComponent</title>
<polygon fill="#ffffb3" stroke="#000000" points="1166.6825,-122 1025.3175,-122 1025.3175,-86 1166.6825,-86 1166.6825,-122"/>
<text text-anchor="middle" x="1096" y="-99.8" font-family="Times,serif" font-size="14.00" fill="#000000">TreeDetailComponent</text>
</g>
<!-- TreeDetailComponent&#45;&gt;DossierNavigatorModule -->
<g id="edge3" class="edge">
<title>TreeDetailComponent&#45;&gt;DossierNavigatorModule</title>
<path fill="none" stroke="#000000" d="M1096,-122.2667C1096,-140.5552 1096,-166 1096,-166 1096,-166 870.4878,-166 870.4878,-166"/>
<polygon fill="#000000" stroke="#000000" points="870.4878,-162.5001 860.4878,-166 870.4878,-169.5001 870.4878,-162.5001"/>
</g>
<!-- TreeListComponent -->
<g id="node4" class="node">
<title>TreeListComponent</title>
<polygon fill="#ffffb3" stroke="#000000" points="1007.2534,-122 878.7466,-122 878.7466,-86 1007.2534,-86 1007.2534,-122"/>
<text text-anchor="middle" x="943" y="-99.8" font-family="Times,serif" font-size="14.00" fill="#000000">TreeListComponent</text>
</g>
<!-- TreeListComponent&#45;&gt;DossierNavigatorModule -->
<g id="edge4" class="edge">
<title>TreeListComponent&#45;&gt;DossierNavigatorModule</title>
<path fill="none" stroke="#000000" d="M943,-122.0091C943,-138.0494 943,-159 943,-159 943,-159 870.5762,-159 870.5762,-159"/>
<polygon fill="#000000" stroke="#000000" points="870.5763,-155.5001 860.5762,-159 870.5762,-162.5001 870.5763,-155.5001"/>
</g>
<!-- DossierRoutingModule -->
<g id="node6" class="node">
<title>DossierRoutingModule</title>
<polygon fill="#8dd3c7" stroke="#000000" points="854.9298,-122 851.9298,-126 830.9298,-126 827.9298,-122 707.0702,-122 707.0702,-86 854.9298,-86 854.9298,-122"/>
<text text-anchor="middle" x="781" y="-99.8" font-family="Times,serif" font-size="14.00" fill="#000000">DossierRoutingModule</text>
</g>
<!-- DossierRoutingModule&#45;&gt;DossierNavigatorModule -->
<g id="edge5" class="edge">
<title>DossierRoutingModule&#45;&gt;DossierNavigatorModule</title>
<path fill="none" stroke="#000000" d="M781,-122.1061C781,-122.1061 781,-140.991 781,-140.991"/>
<polygon fill="#000000" stroke="#000000" points="777.5001,-140.9909 781,-150.991 784.5001,-140.991 777.5001,-140.9909"/>
</g>
<!-- LayoutContainersModule -->
<g id="node7" class="node">
<title>LayoutContainersModule</title>
<polygon fill="#8dd3c7" stroke="#000000" points="688.8599,-122 685.8599,-126 664.8599,-126 661.8599,-122 529.1401,-122 529.1401,-86 688.8599,-86 688.8599,-122"/>
<text text-anchor="middle" x="609" y="-99.8" font-family="Times,serif" font-size="14.00" fill="#000000">LayoutContainersModule</text>
</g>
<!-- LayoutContainersModule&#45;&gt;DossierNavigatorModule -->
<g id="edge6" class="edge">
<title>LayoutContainersModule&#45;&gt;DossierNavigatorModule</title>
<path fill="none" stroke="#000000" d="M609,-122.0091C609,-138.0494 609,-159 609,-159 609,-159 691.7964,-159 691.7964,-159"/>
<polygon fill="#000000" stroke="#000000" points="691.7965,-162.5001 701.7964,-159 691.7964,-155.5001 691.7965,-162.5001"/>
</g>
<!-- DossierApiClient -->
<g id="node8" class="node">
<title>DossierApiClient</title>
<ellipse fill="#fdb462" stroke="#000000" cx="426" cy="-104" rx="78.7453" ry="18"/>
<text text-anchor="middle" x="426" y="-99.8" font-family="Times,serif" font-size="14.00" fill="#000000">DossierApiClient</text>
</g>
<!-- DossierApiClient&#45;&gt;DossierNavigatorModule -->
<g id="edge7" class="edge">
<title>DossierApiClient&#45;&gt;DossierNavigatorModule</title>
<path fill="none" stroke="#000000" d="M426,-122.2667C426,-140.5552 426,-166 426,-166 426,-166 691.7729,-166 691.7729,-166"/>
<polygon fill="#000000" stroke="#000000" points="691.773,-169.5001 701.7729,-166 691.7729,-162.5001 691.773,-169.5001"/>
</g>
<!-- DossierSandbox -->
<g id="node9" class="node">
<title>DossierSandbox</title>
<ellipse fill="#fdb462" stroke="#000000" cx="255" cy="-104" rx="74.1605" ry="18"/>
<text text-anchor="middle" x="255" y="-99.8" font-family="Times,serif" font-size="14.00" fill="#000000">DossierSandbox</text>
</g>
<!-- DossierSandbox&#45;&gt;DossierNavigatorModule -->
<g id="edge8" class="edge">
<title>DossierSandbox&#45;&gt;DossierNavigatorModule</title>
<path fill="none" stroke="#000000" d="M255,-122.1289C255,-142.5724 255,-173 255,-173 255,-173 691.683,-173 691.683,-173"/>
<polygon fill="#000000" stroke="#000000" points="691.683,-176.5001 701.683,-173 691.6829,-169.5001 691.683,-176.5001"/>
</g>
<!-- DossierService -->
<g id="node10" class="node">
<title>DossierService</title>
<ellipse fill="#fdb462" stroke="#000000" cx="93" cy="-104" rx="69.4761" ry="18"/>
<text text-anchor="middle" x="93" y="-99.8" font-family="Times,serif" font-size="14.00" fill="#000000">DossierService</text>
</g>
<!-- DossierService&#45;&gt;DossierNavigatorModule -->
<g id="edge9" class="edge">
<title>DossierService&#45;&gt;DossierNavigatorModule</title>
<path fill="none" stroke="#000000" d="M93,-122.0109C93,-144.4852 93,-180 93,-180 93,-180 691.7419,-180 691.7419,-180"/>
<polygon fill="#000000" stroke="#000000" points="691.7419,-183.5001 701.7419,-180 691.7418,-176.5001 691.7419,-183.5001"/>
</g>
</g>
</svg>
