<?xml version="1.0" encoding="UTF-8" standalone="no"?>
<!DOCTYPE svg PUBLIC "-//W3C//DTD SVG 1.1//EN"
 "http://www.w3.org/Graphics/SVG/1.1/DTD/svg11.dtd">
<!-- Generated by graphviz version 2.40.1 (20161225.0304)
 -->
<!-- Title: dependencies Pages: 1 -->
<svg width="633pt" height="211pt"
 viewBox="0.00 0.00 633.00 211.00" xmlns="http://www.w3.org/2000/svg" xmlns:xlink="http://www.w3.org/1999/xlink">
<g id="graph0" class="graph" transform="scale(1 1) rotate(0) translate(4 207)">
<title>dependencies</title>
<polygon fill="#ffffff" stroke="transparent" points="-4,4 -4,-207 629,-207 629,4 -4,4"/>
<text text-anchor="start" x="291.5091" y="-42.4" font-family="sans-serif" font-weight="bold" font-size="14.00" fill="#000000">Legend</text>
<polygon fill="#ffffb3" stroke="transparent" points="78.5,-10 78.5,-30 98.5,-30 98.5,-10 78.5,-10"/>
<text text-anchor="start" x="102.129" y="-15.4" font-family="sans-serif" font-size="14.00" fill="#000000"> &#160;Declarations</text>
<polygon fill="#8dd3c7" stroke="transparent" points="191.5,-10 191.5,-30 211.5,-30 211.5,-10 191.5,-10"/>
<text text-anchor="start" x="215.2251" y="-15.4" font-family="sans-serif" font-size="14.00" fill="#000000"> &#160;Module</text>
<polygon fill="#80b1d3" stroke="transparent" points="277.5,-10 277.5,-30 297.5,-30 297.5,-10 277.5,-10"/>
<text text-anchor="start" x="301.2812" y="-15.4" font-family="sans-serif" font-size="14.00" fill="#000000"> &#160;Bootstrap</text>
<polygon fill="#fdb462" stroke="transparent" points="374.5,-10 374.5,-30 394.5,-30 394.5,-10 374.5,-10"/>
<text text-anchor="start" x="398.1732" y="-15.4" font-family="sans-serif" font-size="14.00" fill="#000000"> &#160;Providers</text>
<polygon fill="#fb8072" stroke="transparent" points="470.5,-10 470.5,-30 490.5,-30 490.5,-10 470.5,-10"/>
<text text-anchor="start" x="494.2258" y="-15.4" font-family="sans-serif" font-size="14.00" fill="#000000"> &#160;Exports</text>
<g id="clust1" class="cluster">
<title>cluster_AuthModule</title>
<polygon fill="none" stroke="#000000" stroke-dasharray="1,5" points="8,-70 8,-195 617,-195 617,-70 8,-70"/>
</g>
<g id="clust2" class="cluster">
<title>cluster_AuthModule_declarations</title>
<polygon fill="none" stroke="#000000" points="479,-78 479,-130 609,-130 609,-78 479,-78"/>
</g>
<g id="clust4" class="cluster">
<title>cluster_AuthModule_imports</title>
<polygon fill="none" stroke="#000000" points="323,-78 323,-130 471,-130 471,-78 323,-78"/>
</g>
<g id="clust7" class="cluster">
<title>cluster_AuthModule_providers</title>
<polygon fill="none" stroke="#000000" points="16,-78 16,-130 315,-130 315,-78 16,-78"/>
</g>
<!-- LoginComponent -->
<g id="node1" class="node">
<title>LoginComponent</title>
<polygon fill="#ffffb3" stroke="#000000" points="601.2758,-122 486.7242,-122 486.7242,-86 601.2758,-86 601.2758,-122"/>
<text text-anchor="middle" x="544" y="-99.8" font-family="Times,serif" font-size="14.00" fill="#000000">LoginComponent</text>
</g>
<!-- AuthModule -->
<g id="node2" class="node">
<title>AuthModule</title>
<polygon fill="#8dd3c7" stroke="#000000" points="361.5482,-187 358.5482,-191 337.5482,-191 334.5482,-187 274.4518,-187 274.4518,-151 361.5482,-151 361.5482,-187"/>
<text text-anchor="middle" x="318" y="-164.8" font-family="Times,serif" font-size="14.00" fill="#000000">AuthModule</text>
</g>
<!-- LoginComponent&#45;&gt;AuthModule -->
<g id="edge1" class="edge">
<title>LoginComponent&#45;&gt;AuthModule</title>
<path fill="none" stroke="#000000" d="M544,-122.1061C544,-141.3391 544,-169 544,-169 544,-169 371.5751,-169 371.5751,-169"/>
<polygon fill="#000000" stroke="#000000" points="371.5751,-165.5001 361.5751,-169 371.575,-172.5001 371.5751,-165.5001"/>
</g>
<!-- AuthRoutingModule -->
<g id="node3" class="node">
<title>AuthRoutingModule</title>
<polygon fill="#8dd3c7" stroke="#000000" points="463.1652,-122 460.1652,-126 439.1652,-126 436.1652,-122 330.8348,-122 330.8348,-86 463.1652,-86 463.1652,-122"/>
<text text-anchor="middle" x="397" y="-99.8" font-family="Times,serif" font-size="14.00" fill="#000000">AuthRoutingModule</text>
</g>
<!-- AuthRoutingModule&#45;&gt;AuthModule -->
<g id="edge2" class="edge">
<title>AuthRoutingModule&#45;&gt;AuthModule</title>
<path fill="none" stroke="#000000" d="M346.2206,-122.1061C346.2206,-122.1061 346.2206,-140.991 346.2206,-140.991"/>
<polygon fill="#000000" stroke="#000000" points="342.7206,-140.9909 346.2206,-150.991 349.7206,-140.991 342.7206,-140.9909"/>
</g>
<!-- AuthApiClient -->
<g id="node4" class="node">
<title>AuthApiClient</title>
<ellipse fill="#fdb462" stroke="#000000" cx="239" cy="-104" rx="68.3768" ry="18"/>
<text text-anchor="middle" x="239" y="-99.8" font-family="Times,serif" font-size="14.00" fill="#000000">AuthApiClient</text>
</g>
<!-- AuthApiClient&#45;&gt;AuthModule -->
<g id="edge3" class="edge">
<title>AuthApiClient&#45;&gt;AuthModule</title>
<path fill="none" stroke="#000000" d="M290.8324,-115.922C290.8324,-115.922 290.8324,-140.7669 290.8324,-140.7669"/>
<polygon fill="#000000" stroke="#000000" points="287.3325,-140.7669 290.8324,-150.7669 294.3325,-140.7669 287.3325,-140.7669"/>
</g>
<!-- AuthSandbox -->
<g id="node5" class="node">
<title>AuthSandbox</title>
<ellipse fill="#fdb462" stroke="#000000" cx="88" cy="-104" rx="64.292" ry="18"/>
<text text-anchor="middle" x="88" y="-99.8" font-family="Times,serif" font-size="14.00" fill="#000000">AuthSandbox</text>
</g>
<!-- AuthSandbox&#45;&gt;AuthModule -->
<g id="edge4" class="edge">
<title>AuthSandbox&#45;&gt;AuthModule</title>
<path fill="none" stroke="#000000" d="M88,-122.1061C88,-141.3391 88,-169 88,-169 88,-169 264.1974,-169 264.1974,-169"/>
<polygon fill="#000000" stroke="#000000" points="264.1974,-172.5001 274.1974,-169 264.1973,-165.5001 264.1974,-172.5001"/>
</g>
</g>
</svg>
