<?xml version="1.0" encoding="UTF-8" standalone="no"?>
<!DOCTYPE svg PUBLIC "-//W3C//DTD SVG 1.1//EN"
 "http://www.w3.org/Graphics/SVG/1.1/DTD/svg11.dtd">
<!-- Generated by graphviz version 2.40.1 (20161225.0304)
 -->
<!-- Title: dependencies Pages: 1 -->
<svg width="504pt" height="284pt"
 viewBox="0.00 0.00 504.00 284.00" xmlns="http://www.w3.org/2000/svg" xmlns:xlink="http://www.w3.org/1999/xlink">
<g id="graph0" class="graph" transform="scale(1 1) rotate(0) translate(4 280)">
<title>dependencies</title>
<polygon fill="#ffffff" stroke="transparent" points="-4,4 -4,-280 500,-280 500,4 -4,4"/>
<text text-anchor="start" x="227.0091" y="-42.4" font-family="sans-serif" font-weight="bold" font-size="14.00" fill="#000000">Legend</text>
<polygon fill="#ffffb3" stroke="transparent" points="14,-10 14,-30 34,-30 34,-10 14,-10"/>
<text text-anchor="start" x="37.629" y="-15.4" font-family="sans-serif" font-size="14.00" fill="#000000"> &#160;Declarations</text>
<polygon fill="#8dd3c7" stroke="transparent" points="127,-10 127,-30 147,-30 147,-10 127,-10"/>
<text text-anchor="start" x="150.7251" y="-15.4" font-family="sans-serif" font-size="14.00" fill="#000000"> &#160;Module</text>
<polygon fill="#80b1d3" stroke="transparent" points="213,-10 213,-30 233,-30 233,-10 213,-10"/>
<text text-anchor="start" x="236.7812" y="-15.4" font-family="sans-serif" font-size="14.00" fill="#000000"> &#160;Bootstrap</text>
<polygon fill="#fdb462" stroke="transparent" points="310,-10 310,-30 330,-30 330,-10 310,-10"/>
<text text-anchor="start" x="333.6732" y="-15.4" font-family="sans-serif" font-size="14.00" fill="#000000"> &#160;Providers</text>
<polygon fill="#fb8072" stroke="transparent" points="406,-10 406,-30 426,-30 426,-10 406,-10"/>
<text text-anchor="start" x="429.7258" y="-15.4" font-family="sans-serif" font-size="14.00" fill="#000000"> &#160;Exports</text>
<g id="clust1" class="cluster">
<title>cluster_ComponentsModule</title>
<polygon fill="none" stroke="#000000" stroke-dasharray="1,5" points="11,-70 11,-268 485,-268 485,-70 11,-70"/>
</g>
<g id="clust2" class="cluster">
<title>cluster_ComponentsModule_declarations</title>
<polygon fill="none" stroke="#000000" points="24,-78 24,-130 471,-130 471,-78 24,-78"/>
</g>
<g id="clust7" class="cluster">
<title>cluster_ComponentsModule_exports</title>
<polygon fill="none" stroke="#000000" points="19,-208 19,-260 477,-260 477,-208 19,-208"/>
</g>
<!-- AuthorizeDirective -->
<g id="node1" class="node">
<title>AuthorizeDirective</title>
<polygon fill="#ffffb3" stroke="#000000" points="463.0604,-122 338.9396,-122 338.9396,-86 463.0604,-86 463.0604,-122"/>
<text text-anchor="middle" x="401" y="-99.8" font-family="Times,serif" font-size="14.00" fill="#000000">AuthorizeDirective</text>
</g>
<!-- ComponentsModule -->
<g id="node4" class="node">
<title>ComponentsModule</title>
<polygon fill="#8dd3c7" stroke="#000000" points="313.3272,-187 310.3272,-191 289.3272,-191 286.3272,-187 182.6728,-187 182.6728,-151 313.3272,-151 313.3272,-187"/>
<text text-anchor="middle" x="248" y="-164.8" font-family="Times,serif" font-size="14.00" fill="#000000">ComponentsModule</text>
</g>
<!-- AuthorizeDirective&#45;&gt;ComponentsModule -->
<g id="edge1" class="edge">
<title>AuthorizeDirective&#45;&gt;ComponentsModule</title>
<path fill="none" stroke="#000000" d="M422.4267,-122.0225C422.4267,-139.3734 422.4267,-163 422.4267,-163 422.4267,-163 323.4463,-163 323.4463,-163"/>
<polygon fill="#000000" stroke="#000000" points="323.4464,-159.5001 313.4463,-163 323.4463,-166.5001 323.4464,-159.5001"/>
</g>
<!-- DynamicTabsDirective -->
<g id="node2" class="node">
<title>DynamicTabsDirective</title>
<polygon fill="#ffffb3" stroke="#000000" points="321.1121,-122 174.8879,-122 174.8879,-86 321.1121,-86 321.1121,-122"/>
<text text-anchor="middle" x="248" y="-99.8" font-family="Times,serif" font-size="14.00" fill="#000000">DynamicTabsDirective</text>
</g>
<!-- DynamicTabsDirective&#45;&gt;ComponentsModule -->
<g id="edge2" class="edge">
<title>DynamicTabsDirective&#45;&gt;ComponentsModule</title>
<path fill="none" stroke="#000000" d="M248,-122.1061C248,-122.1061 248,-140.991 248,-140.991"/>
<polygon fill="#000000" stroke="#000000" points="244.5001,-140.9909 248,-150.991 251.5001,-140.991 244.5001,-140.9909"/>
</g>
<!-- SpinnerComponent -->
<g id="node3" class="node">
<title>SpinnerComponent</title>
<polygon fill="#ffffb3" stroke="#000000" points="156.3809,-122 31.6191,-122 31.6191,-86 156.3809,-86 156.3809,-122"/>
<text text-anchor="middle" x="94" y="-99.8" font-family="Times,serif" font-size="14.00" fill="#000000">SpinnerComponent</text>
</g>
<!-- SpinnerComponent&#45;&gt;ComponentsModule -->
<g id="edge3" class="edge">
<title>SpinnerComponent&#45;&gt;ComponentsModule</title>
<path fill="none" stroke="#000000" d="M113.9801,-122.0225C113.9801,-139.3734 113.9801,-163 113.9801,-163 113.9801,-163 172.5605,-163 172.5605,-163"/>
<polygon fill="#000000" stroke="#000000" points="172.5605,-166.5001 182.5605,-163 172.5604,-159.5001 172.5605,-166.5001"/>
</g>
<!-- AuthorizeDirective  -->
<g id="node5" class="node">
<title>AuthorizeDirective </title>
<polygon fill="#fb8072" stroke="#000000" points="468.5612,-252 341.4388,-252 341.4388,-216 468.5612,-216 468.5612,-252"/>
<text text-anchor="middle" x="405" y="-229.8" font-family="Times,serif" font-size="14.00" fill="#000000">AuthorizeDirective </text>
</g>
<!-- ComponentsModule&#45;&gt;AuthorizeDirective  -->
<g id="edge4" class="edge">
<title>ComponentsModule&#45;&gt;AuthorizeDirective </title>
<path fill="none" stroke="#000000" stroke-dasharray="5,2" d="M313.3435,-175C347.3138,-175 381.8233,-175 381.8233,-175 381.8233,-175 381.8233,-205.9775 381.8233,-205.9775"/>
<polygon fill="#000000" stroke="#000000" points="378.3234,-205.9774 381.8233,-215.9775 385.3234,-205.9775 378.3234,-205.9774"/>
</g>
<!-- DynamicTabsDirective  -->
<g id="node6" class="node">
<title>DynamicTabsDirective </title>
<polygon fill="#fb8072" stroke="#000000" points="323.1116,-252 172.8884,-252 172.8884,-216 323.1116,-216 323.1116,-252"/>
<text text-anchor="middle" x="248" y="-229.8" font-family="Times,serif" font-size="14.00" fill="#000000">DynamicTabsDirective </text>
</g>
<!-- ComponentsModule&#45;&gt;DynamicTabsDirective  -->
<g id="edge5" class="edge">
<title>ComponentsModule&#45;&gt;DynamicTabsDirective </title>
<path fill="none" stroke="#000000" stroke-dasharray="5,2" d="M248,-187.1061C248,-187.1061 248,-205.991 248,-205.991"/>
<polygon fill="#000000" stroke="#000000" points="244.5001,-205.9909 248,-215.991 251.5001,-205.991 244.5001,-205.9909"/>
</g>
<!-- SpinnerComponent  -->
<g id="node7" class="node">
<title>SpinnerComponent </title>
<polygon fill="#fb8072" stroke="#000000" points="155.3814,-252 26.6186,-252 26.6186,-216 155.3814,-216 155.3814,-252"/>
<text text-anchor="middle" x="91" y="-229.8" font-family="Times,serif" font-size="14.00" fill="#000000">SpinnerComponent </text>
</g>
<!-- ComponentsModule&#45;&gt;SpinnerComponent  -->
<g id="edge6" class="edge">
<title>ComponentsModule&#45;&gt;SpinnerComponent </title>
<path fill="none" stroke="#000000" stroke-dasharray="5,2" d="M182.7508,-175C132.9304,-175 72.7699,-175 72.7699,-175 72.7699,-175 72.7699,-205.9775 72.7699,-205.9775"/>
<polygon fill="#000000" stroke="#000000" points="69.27,-205.9774 72.7699,-215.9775 76.27,-205.9775 69.27,-205.9774"/>
</g>
</g>
</svg>
